%TF.GenerationSoftware,KiCad,Pcbnew,7.0.9*%
%TF.CreationDate,2026-03-18T13:29:09+01:00*%
%TF.ProjectId,AQOR_Capteur,41514f52-5f43-4617-9074-6575722e6b69,rev?*%
%TF.SameCoordinates,Original*%
%TF.FileFunction,Copper,L2,Bot*%
%TF.FilePolarity,Positive*%
%FSLAX46Y46*%
G04 Gerber Fmt 4.6, Leading zero omitted, Abs format (unit mm)*
G04 Created by KiCad (PCBNEW 7.0.9) date 2026-03-18 13:29:09*
%MOMM*%
%LPD*%
G01*
G04 APERTURE LIST*
G04 Aperture macros list*
%AMRoundRect*
0 Rectangle with rounded corners*
0 $1 Rounding radius*
0 $2 $3 $4 $5 $6 $7 $8 $9 X,Y pos of 4 corners*
0 Add a 4 corners polygon primitive as box body*
4,1,4,$2,$3,$4,$5,$6,$7,$8,$9,$2,$3,0*
0 Add four circle primitives for the rounded corners*
1,1,$1+$1,$2,$3*
1,1,$1+$1,$4,$5*
1,1,$1+$1,$6,$7*
1,1,$1+$1,$8,$9*
0 Add four rect primitives between the rounded corners*
20,1,$1+$1,$2,$3,$4,$5,0*
20,1,$1+$1,$4,$5,$6,$7,0*
20,1,$1+$1,$6,$7,$8,$9,0*
20,1,$1+$1,$8,$9,$2,$3,0*%
G04 Aperture macros list end*
%TA.AperFunction,ComponentPad*%
%ADD10RoundRect,0.250000X-0.600000X-0.725000X0.600000X-0.725000X0.600000X0.725000X-0.600000X0.725000X0*%
%TD*%
%TA.AperFunction,ComponentPad*%
%ADD11O,1.700000X1.950000*%
%TD*%
%TA.AperFunction,ComponentPad*%
%ADD12C,1.600000*%
%TD*%
%TA.AperFunction,ComponentPad*%
%ADD13O,1.600000X1.600000*%
%TD*%
%TA.AperFunction,ComponentPad*%
%ADD14R,1.700000X1.700000*%
%TD*%
%TA.AperFunction,ComponentPad*%
%ADD15O,1.700000X1.700000*%
%TD*%
%TA.AperFunction,ComponentPad*%
%ADD16O,2.000000X1.200000*%
%TD*%
%TA.AperFunction,ComponentPad*%
%ADD17RoundRect,0.250000X0.750000X-0.600000X0.750000X0.600000X-0.750000X0.600000X-0.750000X-0.600000X0*%
%TD*%
%TA.AperFunction,ComponentPad*%
%ADD18O,2.000000X1.700000*%
%TD*%
%TA.AperFunction,ComponentPad*%
%ADD19RoundRect,0.250000X0.725000X-0.600000X0.725000X0.600000X-0.725000X0.600000X-0.725000X-0.600000X0*%
%TD*%
%TA.AperFunction,ComponentPad*%
%ADD20O,1.950000X1.700000*%
%TD*%
%TA.AperFunction,ViaPad*%
%ADD21C,2.400000*%
%TD*%
%TA.AperFunction,Conductor*%
%ADD22C,0.500000*%
%TD*%
%TA.AperFunction,Conductor*%
%ADD23C,1.000000*%
%TD*%
G04 APERTURE END LIST*
D10*
%TO.P,J2,1,Pin_1*%
%TO.N,/GND*%
X158830000Y-109220000D03*
D11*
%TO.P,J2,2,Pin_2*%
%TO.N,/Vext*%
X161330000Y-109220000D03*
%TO.P,J2,3,Pin_3*%
%TO.N,/SD*%
X163830000Y-109220000D03*
%TO.P,J2,4,Pin_4*%
%TO.N,/SCK*%
X166330000Y-109220000D03*
%TO.P,J2,5,Pin_5*%
%TO.N,/WS*%
X168830000Y-109220000D03*
%TO.P,J2,6,Pin_6*%
%TO.N,/GND*%
X171330000Y-109220000D03*
%TD*%
D10*
%TO.P,J6,1,Pin_1*%
%TO.N,/GND*%
X133430000Y-109220000D03*
D11*
%TO.P,J6,2,Pin_2*%
%TO.N,/Vext*%
X135930000Y-109220000D03*
%TO.P,J6,3,Pin_3*%
%TO.N,/SCL*%
X138430000Y-109220000D03*
%TO.P,J6,4,Pin_4*%
%TO.N,/SDA*%
X140930000Y-109220000D03*
%TD*%
D12*
%TO.P,R1,1*%
%TO.N,/GND*%
X158750000Y-59690000D03*
D13*
%TO.P,R1,2*%
%TO.N,/EN*%
X158750000Y-72390000D03*
%TD*%
D14*
%TO.P,J5,1,Pin_1*%
%TO.N,/3V8_BAT*%
X165140000Y-50800000D03*
D15*
%TO.P,J5,2,Pin_2*%
%TO.N,/GND*%
X165140000Y-53340000D03*
%TD*%
D16*
%TO.P,Heltech_ESP32_WIFI_LORA_V3,1,Ve*%
%TO.N,/Vext*%
X130810000Y-49530000D03*
%TO.P,Heltech_ESP32_WIFI_LORA_V3,2,GND*%
%TO.N,/GND*%
X130810000Y-52070000D03*
%TO.P,Heltech_ESP32_WIFI_LORA_V3,3,GPIO12*%
%TO.N,unconnected-(Heltech_ESP32_WIFI_LORA_V3-GPIO12-Pad3)*%
X130810000Y-54610000D03*
%TO.P,Heltech_ESP32_WIFI_LORA_V3,4,U0RXD*%
%TO.N,unconnected-(Heltech_ESP32_WIFI_LORA_V3-U0RXD-Pad4)*%
X130810000Y-57150000D03*
%TO.P,Heltech_ESP32_WIFI_LORA_V3,5,U0TXD*%
%TO.N,unconnected-(Heltech_ESP32_WIFI_LORA_V3-U0TXD-Pad5)*%
X130810000Y-59690000D03*
%TO.P,Heltech_ESP32_WIFI_LORA_V3,6,GPIO33*%
%TO.N,unconnected-(Heltech_ESP32_WIFI_LORA_V3-GPIO33-Pad6)*%
X130810000Y-62230000D03*
%TO.P,Heltech_ESP32_WIFI_LORA_V3,7,GPIO34*%
%TO.N,unconnected-(Heltech_ESP32_WIFI_LORA_V3-GPIO34-Pad7)*%
X130810000Y-64770000D03*
%TO.P,Heltech_ESP32_WIFI_LORA_V3,8,GPIO35*%
%TO.N,unconnected-(Heltech_ESP32_WIFI_LORA_V3-GPIO35-Pad8)*%
X130810000Y-67310000D03*
%TO.P,Heltech_ESP32_WIFI_LORA_V3,9,GPIO36*%
%TO.N,unconnected-(Heltech_ESP32_WIFI_LORA_V3-GPIO36-Pad9)*%
X130810000Y-69850000D03*
%TO.P,Heltech_ESP32_WIFI_LORA_V3,10,GPIO37*%
%TO.N,unconnected-(Heltech_ESP32_WIFI_LORA_V3-GPIO37-Pad10)*%
X130810000Y-72390000D03*
%TO.P,Heltech_ESP32_WIFI_LORA_V3,11,GPIO38*%
%TO.N,/WS*%
X130810000Y-74930000D03*
%TO.P,Heltech_ESP32_WIFI_LORA_V3,12,GPIO39*%
%TO.N,/SCK*%
X130810000Y-77470000D03*
%TO.P,Heltech_ESP32_WIFI_LORA_V3,13,GPIO40*%
%TO.N,/SD*%
X130810000Y-80010000D03*
%TO.P,Heltech_ESP32_WIFI_LORA_V3,14,GPIO41*%
%TO.N,/SDA*%
X130810000Y-82550000D03*
%TO.P,Heltech_ESP32_WIFI_LORA_V3,15,GPIO42*%
%TO.N,/SCL*%
X130810000Y-85090000D03*
%TO.P,Heltech_ESP32_WIFI_LORA_V3,16,GPIO45*%
%TO.N,unconnected-(Heltech_ESP32_WIFI_LORA_V3-GPIO45-Pad16)*%
X130810000Y-87630000D03*
%TO.P,Heltech_ESP32_WIFI_LORA_V3,17,GPIO46*%
%TO.N,unconnected-(Heltech_ESP32_WIFI_LORA_V3-GPIO46-Pad17)*%
X130810000Y-90170000D03*
%TO.P,Heltech_ESP32_WIFI_LORA_V3,18,GPIO1*%
%TO.N,unconnected-(Heltech_ESP32_WIFI_LORA_V3-GPIO1-Pad18)*%
X130810000Y-92710000D03*
%TO.P,Heltech_ESP32_WIFI_LORA_V3,19,GPIO2*%
%TO.N,unconnected-(Heltech_ESP32_WIFI_LORA_V3-GPIO2-Pad19)*%
X130810000Y-95250000D03*
%TO.P,Heltech_ESP32_WIFI_LORA_V3,20,GPIO3*%
%TO.N,unconnected-(Heltech_ESP32_WIFI_LORA_V3-GPIO3-Pad20)*%
X130810000Y-97790000D03*
%TO.P,Heltech_ESP32_WIFI_LORA_V3,21,GPIO4*%
%TO.N,/RXD*%
X151130000Y-97790000D03*
%TO.P,Heltech_ESP32_WIFI_LORA_V3,22,GPIO5*%
%TO.N,/TXD*%
X151130000Y-95250000D03*
%TO.P,Heltech_ESP32_WIFI_LORA_V3,23,GPIO6*%
%TO.N,unconnected-(Heltech_ESP32_WIFI_LORA_V3-GPIO6-Pad23)*%
X151130000Y-92710000D03*
%TO.P,Heltech_ESP32_WIFI_LORA_V3,24,GPIO7*%
%TO.N,unconnected-(Heltech_ESP32_WIFI_LORA_V3-GPIO7-Pad24)*%
X151130000Y-90170000D03*
%TO.P,Heltech_ESP32_WIFI_LORA_V3,25,GPIO15*%
%TO.N,unconnected-(Heltech_ESP32_WIFI_LORA_V3-GPIO15-Pad25)*%
X151130000Y-87630000D03*
%TO.P,Heltech_ESP32_WIFI_LORA_V3,26,GPIO16*%
%TO.N,unconnected-(Heltech_ESP32_WIFI_LORA_V3-GPIO16-Pad26)*%
X151130000Y-85090000D03*
%TO.P,Heltech_ESP32_WIFI_LORA_V3,27,RST*%
%TO.N,unconnected-(Heltech_ESP32_WIFI_LORA_V3-RST-Pad27)*%
X151130000Y-82550000D03*
%TO.P,Heltech_ESP32_WIFI_LORA_V3,28,GPIO14*%
%TO.N,unconnected-(Heltech_ESP32_WIFI_LORA_V3-GPIO14-Pad28)*%
X151130000Y-80010000D03*
%TO.P,Heltech_ESP32_WIFI_LORA_V3,29,GPIO17*%
%TO.N,unconnected-(Heltech_ESP32_WIFI_LORA_V3-GPIO17-Pad29)*%
X151130000Y-77470000D03*
%TO.P,Heltech_ESP32_WIFI_LORA_V3,30,GPIO19*%
%TO.N,unconnected-(Heltech_ESP32_WIFI_LORA_V3-GPIO19-Pad30)*%
X151130000Y-74930000D03*
%TO.P,Heltech_ESP32_WIFI_LORA_V3,31,GPIO21*%
%TO.N,/EN*%
X151130000Y-72390000D03*
%TO.P,Heltech_ESP32_WIFI_LORA_V3,32,GPIO18*%
%TO.N,unconnected-(Heltech_ESP32_WIFI_LORA_V3-GPIO18-Pad32)*%
X151130000Y-69850000D03*
%TO.P,Heltech_ESP32_WIFI_LORA_V3,33,GPIO20*%
%TO.N,unconnected-(Heltech_ESP32_WIFI_LORA_V3-GPIO20-Pad33)*%
X151130000Y-67310000D03*
%TO.P,Heltech_ESP32_WIFI_LORA_V3,34,GPIO26*%
%TO.N,unconnected-(Heltech_ESP32_WIFI_LORA_V3-GPIO26-Pad34)*%
X151130000Y-64770000D03*
%TO.P,Heltech_ESP32_WIFI_LORA_V3,35,GPIO0*%
%TO.N,unconnected-(Heltech_ESP32_WIFI_LORA_V3-GPIO0-Pad35)*%
X151130000Y-62230000D03*
%TO.P,Heltech_ESP32_WIFI_LORA_V3,36,GPIO48*%
%TO.N,unconnected-(Heltech_ESP32_WIFI_LORA_V3-GPIO48-Pad36)*%
X151130000Y-59690000D03*
%TO.P,Heltech_ESP32_WIFI_LORA_V3,37,GPIO47*%
%TO.N,unconnected-(Heltech_ESP32_WIFI_LORA_V3-GPIO47-Pad37)*%
X151130000Y-57150000D03*
%TO.P,Heltech_ESP32_WIFI_LORA_V3,38,GND*%
%TO.N,/GND*%
X151130000Y-54610000D03*
%TO.P,Heltech_ESP32_WIFI_LORA_V3,39,3V3*%
%TO.N,/3V3*%
X151130000Y-52070000D03*
%TO.P,Heltech_ESP32_WIFI_LORA_V3,40,5V*%
%TO.N,unconnected-(Heltech_ESP32_WIFI_LORA_V3-5V-Pad40)*%
X151130000Y-49530000D03*
%TD*%
D17*
%TO.P,J1,1,Pin_1*%
%TO.N,/GND*%
X172720000Y-53340000D03*
D18*
%TO.P,J1,2,Pin_2*%
%TO.N,/3V8_BAT*%
X172720000Y-50840000D03*
%TD*%
D19*
%TO.P,J3,1,Pin_1*%
%TO.N,/TXD*%
X163305000Y-97710000D03*
D20*
%TO.P,J3,2,Pin_2*%
%TO.N,/RXD*%
X163305000Y-95210000D03*
%TO.P,J3,3,Pin_3*%
%TO.N,/GND*%
X163305000Y-92710000D03*
%TO.P,J3,4,Pin_4*%
%TO.N,/+5V*%
X163305000Y-90210000D03*
%TO.P,J3,5,Pin_5*%
%TO.N,/NC*%
X163305000Y-87710000D03*
%TD*%
D14*
%TO.P,TPS61023,1,Pin_1*%
%TO.N,/3V8_BAT*%
X175260000Y-66675000D03*
D15*
%TO.P,TPS61023,2,Pin_2*%
%TO.N,/GND*%
X172720000Y-66675000D03*
%TO.P,TPS61023,3,Pin_3*%
%TO.N,/+5V*%
X170180000Y-66675000D03*
%TO.P,TPS61023,4,Pin_4*%
%TO.N,/EN*%
X167640000Y-66675000D03*
%TD*%
D21*
%TO.N,*%
X137160000Y-44450000D03*
X170180000Y-44450000D03*
X170180000Y-121920000D03*
X137160000Y-121920000D03*
%TD*%
D22*
%TO.N,/RXD*%
X163265000Y-95250000D02*
X163305000Y-95210000D01*
%TO.N,/TXD*%
X163225000Y-97790000D02*
X163305000Y-97710000D01*
D23*
%TO.N,/Vext*%
X166145597Y-117347797D02*
X161330000Y-112532200D01*
X176485652Y-47276692D02*
X178359465Y-49150505D01*
X132638449Y-47276692D02*
X176485652Y-47276692D01*
X178359465Y-112880937D02*
X173892605Y-117347797D01*
X173892605Y-117347797D02*
X166145597Y-117347797D01*
X130810000Y-49105141D02*
X132638449Y-47276692D01*
X178359465Y-49150505D02*
X178359465Y-112880937D01*
X130810000Y-49530000D02*
X130810000Y-49105141D01*
X161330000Y-112990000D02*
X161330000Y-112532200D01*
X157346965Y-116973035D02*
X161330000Y-112990000D01*
X135930000Y-112990000D02*
X135890000Y-113030000D01*
X139833035Y-116973035D02*
X157346965Y-116973035D01*
X135930000Y-109220000D02*
X135930000Y-112990000D01*
X135890000Y-113030000D02*
X139833035Y-116973035D01*
%TO.N,/GND*%
X136616293Y-54610000D02*
X151130000Y-54610000D01*
X130810000Y-52070000D02*
X134076293Y-52070000D01*
X134076293Y-52070000D02*
X136616293Y-54610000D01*
X130220985Y-109220000D02*
X133430000Y-109220000D01*
X128226729Y-107225744D02*
X130220985Y-109220000D01*
X129640877Y-52070000D02*
X128226729Y-53484148D01*
X130810000Y-52070000D02*
X129640877Y-52070000D01*
X128226729Y-53484148D02*
X128226729Y-107225744D01*
%TO.N,/Vext*%
X161330000Y-112532200D02*
X161330000Y-109220000D01*
D22*
%TO.N,/WS*%
X168830000Y-102950000D02*
X168830000Y-109220000D01*
X144780000Y-81280000D02*
X144780000Y-99060000D01*
X147320000Y-101600000D02*
X167640000Y-101600000D01*
X167640000Y-101600000D02*
X168910000Y-102870000D01*
X130810000Y-74930000D02*
X138430000Y-74930000D01*
X144780000Y-99060000D02*
X147320000Y-101600000D01*
X138430000Y-74930000D02*
X144780000Y-81280000D01*
X168910000Y-102870000D02*
X168830000Y-102950000D01*
%TO.N,/SCK*%
X165100000Y-102870000D02*
X166370000Y-104140000D01*
X143510000Y-100330000D02*
X146050000Y-102870000D01*
X166330000Y-104180000D02*
X166330000Y-109220000D01*
X146050000Y-102870000D02*
X165100000Y-102870000D01*
X130810000Y-77470000D02*
X138430000Y-77470000D01*
X143510000Y-82550000D02*
X143510000Y-100330000D01*
X138430000Y-77470000D02*
X143510000Y-82550000D01*
X166370000Y-104140000D02*
X166330000Y-104180000D01*
%TO.N,/SD*%
X138430000Y-80010000D02*
X142240000Y-83820000D01*
X130810000Y-80010000D02*
X138430000Y-80010000D01*
X163830000Y-105410000D02*
X163830000Y-109220000D01*
X142240000Y-83820000D02*
X142240000Y-101600000D01*
X144780000Y-104140000D02*
X162560000Y-104140000D01*
X142240000Y-101600000D02*
X144780000Y-104140000D01*
X162560000Y-104140000D02*
X163830000Y-105410000D01*
%TO.N,/SDA*%
X130810000Y-82550000D02*
X134620000Y-82550000D01*
X140970000Y-109180000D02*
X140930000Y-109220000D01*
X137160000Y-85090000D02*
X137160000Y-97790000D01*
X137160000Y-97790000D02*
X140970000Y-101600000D01*
X140970000Y-101600000D02*
X140970000Y-109180000D01*
X134620000Y-82550000D02*
X137160000Y-85090000D01*
%TO.N,/SCL*%
X130810000Y-85090000D02*
X134620000Y-85090000D01*
X135890000Y-99060000D02*
X138430000Y-101600000D01*
X134620000Y-85090000D02*
X135890000Y-86360000D01*
X135890000Y-86360000D02*
X135890000Y-99060000D01*
X138430000Y-101600000D02*
X138430000Y-109220000D01*
%TO.N,/RXD*%
X156250000Y-95210000D02*
X163305000Y-95210000D01*
X153670000Y-97790000D02*
X156250000Y-95210000D01*
X151130000Y-97790000D02*
X153670000Y-97790000D01*
%TO.N,/TXD*%
X151130000Y-95250000D02*
X149860000Y-95250000D01*
X148590000Y-96520000D02*
X148590000Y-99060000D01*
X148590000Y-99060000D02*
X149860000Y-100330000D01*
X149860000Y-100330000D02*
X156210000Y-100330000D01*
X149860000Y-95250000D02*
X148590000Y-96520000D01*
X156210000Y-100330000D02*
X158830000Y-97710000D01*
X158830000Y-97710000D02*
X163305000Y-97710000D01*
%TO.N,/EN*%
X164777500Y-72390000D02*
X167630000Y-69537500D01*
X167640000Y-68570000D02*
X167640000Y-66675000D01*
X167630000Y-68580000D02*
X167640000Y-68570000D01*
X167630000Y-69537500D02*
X167630000Y-68580000D01*
X158750000Y-72390000D02*
X164777500Y-72390000D01*
X151130000Y-72390000D02*
X158750000Y-72390000D01*
D23*
%TO.N,/GND*%
X158750000Y-55880000D02*
X158750000Y-59690000D01*
X172710000Y-68580000D02*
X172710000Y-88255000D01*
X165140000Y-53340000D02*
X172720000Y-53340000D01*
X168910000Y-92710000D02*
X163305000Y-92710000D01*
X157480000Y-54610000D02*
X158750000Y-53340000D01*
X171330000Y-95130000D02*
X171330000Y-109220000D01*
X172720000Y-88265000D02*
X172710000Y-88255000D01*
X172720000Y-68570000D02*
X172710000Y-68580000D01*
X172710000Y-88910000D02*
X168910000Y-92710000D01*
X172710000Y-88255000D02*
X172710000Y-88910000D01*
X151130000Y-54610000D02*
X157480000Y-54610000D01*
X158750000Y-53340000D02*
X165140000Y-53340000D01*
X172720000Y-53340000D02*
X172720000Y-68570000D01*
X168910000Y-92710000D02*
X171330000Y-95130000D01*
X157480000Y-54610000D02*
X158750000Y-55880000D01*
%TO.N,/3V8_BAT*%
X175260000Y-52070000D02*
X175260000Y-66675000D01*
X165140000Y-50800000D02*
X172680000Y-50800000D01*
X173990000Y-50800000D02*
X175260000Y-52070000D01*
X172760000Y-50800000D02*
X173990000Y-50800000D01*
X172680000Y-50800000D02*
X172720000Y-50840000D01*
X172720000Y-50840000D02*
X172760000Y-50800000D01*
%TO.N,/+5V*%
X170170000Y-68580000D02*
X170180000Y-68570000D01*
X170170000Y-68580000D02*
X170170000Y-86370000D01*
X170170000Y-86370000D02*
X166330000Y-90210000D01*
X170180000Y-68570000D02*
X170180000Y-66675000D01*
X166330000Y-90210000D02*
X163305000Y-90210000D01*
%TD*%
M02*
