%TF.GenerationSoftware,KiCad,Pcbnew,7.0.9*%
%TF.CreationDate,2026-03-18T13:29:09+01:00*%
%TF.ProjectId,AQOR_Capteur,41514f52-5f43-4617-9074-6575722e6b69,rev?*%
%TF.SameCoordinates,Original*%
%TF.FileFunction,OtherDrawing,Comment*%
%FSLAX46Y46*%
G04 Gerber Fmt 4.6, Leading zero omitted, Abs format (unit mm)*
G04 Created by KiCad (PCBNEW 7.0.9) date 2026-03-18 13:29:09*
%MOMM*%
%LPD*%
G01*
G04 APERTURE LIST*
%ADD10C,0.150000*%
%ADD11C,0.100000*%
G04 APERTURE END LIST*
D10*
X188124580Y-93947143D02*
X188029342Y-94137619D01*
X188029342Y-94137619D02*
X187934104Y-94232857D01*
X187934104Y-94232857D02*
X187743628Y-94328095D01*
X187743628Y-94328095D02*
X187648390Y-94328095D01*
X187648390Y-94328095D02*
X187457914Y-94232857D01*
X187457914Y-94232857D02*
X187362676Y-94137619D01*
X187362676Y-94137619D02*
X187267438Y-93947143D01*
X187267438Y-93947143D02*
X187267438Y-93566190D01*
X187267438Y-93566190D02*
X187362676Y-93375714D01*
X187362676Y-93375714D02*
X187457914Y-93280476D01*
X187457914Y-93280476D02*
X187648390Y-93185238D01*
X187648390Y-93185238D02*
X187743628Y-93185238D01*
X187743628Y-93185238D02*
X187934104Y-93280476D01*
X187934104Y-93280476D02*
X188029342Y-93375714D01*
X188029342Y-93375714D02*
X188124580Y-93566190D01*
X188124580Y-93566190D02*
X188124580Y-93947143D01*
X188124580Y-93947143D02*
X188219819Y-94137619D01*
X188219819Y-94137619D02*
X188315057Y-94232857D01*
X188315057Y-94232857D02*
X188505533Y-94328095D01*
X188505533Y-94328095D02*
X188886485Y-94328095D01*
X188886485Y-94328095D02*
X189076961Y-94232857D01*
X189076961Y-94232857D02*
X189172200Y-94137619D01*
X189172200Y-94137619D02*
X189267438Y-93947143D01*
X189267438Y-93947143D02*
X189267438Y-93566190D01*
X189267438Y-93566190D02*
X189172200Y-93375714D01*
X189172200Y-93375714D02*
X189076961Y-93280476D01*
X189076961Y-93280476D02*
X188886485Y-93185238D01*
X188886485Y-93185238D02*
X188505533Y-93185238D01*
X188505533Y-93185238D02*
X188315057Y-93280476D01*
X188315057Y-93280476D02*
X188219819Y-93375714D01*
X188219819Y-93375714D02*
X188124580Y-93566190D01*
X187267438Y-91470952D02*
X187267438Y-91851905D01*
X187267438Y-91851905D02*
X187362676Y-92042381D01*
X187362676Y-92042381D02*
X187457914Y-92137619D01*
X187457914Y-92137619D02*
X187743628Y-92328095D01*
X187743628Y-92328095D02*
X188124580Y-92423333D01*
X188124580Y-92423333D02*
X188886485Y-92423333D01*
X188886485Y-92423333D02*
X189076961Y-92328095D01*
X189076961Y-92328095D02*
X189172200Y-92232857D01*
X189172200Y-92232857D02*
X189267438Y-92042381D01*
X189267438Y-92042381D02*
X189267438Y-91661428D01*
X189267438Y-91661428D02*
X189172200Y-91470952D01*
X189172200Y-91470952D02*
X189076961Y-91375714D01*
X189076961Y-91375714D02*
X188886485Y-91280476D01*
X188886485Y-91280476D02*
X188410295Y-91280476D01*
X188410295Y-91280476D02*
X188219819Y-91375714D01*
X188219819Y-91375714D02*
X188124580Y-91470952D01*
X188124580Y-91470952D02*
X188029342Y-91661428D01*
X188029342Y-91661428D02*
X188029342Y-92042381D01*
X188029342Y-92042381D02*
X188124580Y-92232857D01*
X188124580Y-92232857D02*
X188219819Y-92328095D01*
X188219819Y-92328095D02*
X188410295Y-92423333D01*
X189172200Y-90328095D02*
X189267438Y-90328095D01*
X189267438Y-90328095D02*
X189457914Y-90423333D01*
X189457914Y-90423333D02*
X189553152Y-90518571D01*
X187267438Y-89661428D02*
X187267438Y-88423333D01*
X187267438Y-88423333D02*
X188029342Y-89090000D01*
X188029342Y-89090000D02*
X188029342Y-88804285D01*
X188029342Y-88804285D02*
X188124580Y-88613809D01*
X188124580Y-88613809D02*
X188219819Y-88518571D01*
X188219819Y-88518571D02*
X188410295Y-88423333D01*
X188410295Y-88423333D02*
X188886485Y-88423333D01*
X188886485Y-88423333D02*
X189076961Y-88518571D01*
X189076961Y-88518571D02*
X189172200Y-88613809D01*
X189172200Y-88613809D02*
X189267438Y-88804285D01*
X189267438Y-88804285D02*
X189267438Y-89375714D01*
X189267438Y-89375714D02*
X189172200Y-89566190D01*
X189172200Y-89566190D02*
X189076961Y-89661428D01*
X187267438Y-86709047D02*
X187267438Y-87090000D01*
X187267438Y-87090000D02*
X187362676Y-87280476D01*
X187362676Y-87280476D02*
X187457914Y-87375714D01*
X187457914Y-87375714D02*
X187743628Y-87566190D01*
X187743628Y-87566190D02*
X188124580Y-87661428D01*
X188124580Y-87661428D02*
X188886485Y-87661428D01*
X188886485Y-87661428D02*
X189076961Y-87566190D01*
X189076961Y-87566190D02*
X189172200Y-87470952D01*
X189172200Y-87470952D02*
X189267438Y-87280476D01*
X189267438Y-87280476D02*
X189267438Y-86899523D01*
X189267438Y-86899523D02*
X189172200Y-86709047D01*
X189172200Y-86709047D02*
X189076961Y-86613809D01*
X189076961Y-86613809D02*
X188886485Y-86518571D01*
X188886485Y-86518571D02*
X188410295Y-86518571D01*
X188410295Y-86518571D02*
X188219819Y-86613809D01*
X188219819Y-86613809D02*
X188124580Y-86709047D01*
X188124580Y-86709047D02*
X188029342Y-86899523D01*
X188029342Y-86899523D02*
X188029342Y-87280476D01*
X188029342Y-87280476D02*
X188124580Y-87470952D01*
X188124580Y-87470952D02*
X188219819Y-87566190D01*
X188219819Y-87566190D02*
X188410295Y-87661428D01*
X187267438Y-85280476D02*
X187267438Y-85089999D01*
X187267438Y-85089999D02*
X187362676Y-84899523D01*
X187362676Y-84899523D02*
X187457914Y-84804285D01*
X187457914Y-84804285D02*
X187648390Y-84709047D01*
X187648390Y-84709047D02*
X188029342Y-84613809D01*
X188029342Y-84613809D02*
X188505533Y-84613809D01*
X188505533Y-84613809D02*
X188886485Y-84709047D01*
X188886485Y-84709047D02*
X189076961Y-84804285D01*
X189076961Y-84804285D02*
X189172200Y-84899523D01*
X189172200Y-84899523D02*
X189267438Y-85089999D01*
X189267438Y-85089999D02*
X189267438Y-85280476D01*
X189267438Y-85280476D02*
X189172200Y-85470952D01*
X189172200Y-85470952D02*
X189076961Y-85566190D01*
X189076961Y-85566190D02*
X188886485Y-85661428D01*
X188886485Y-85661428D02*
X188505533Y-85756666D01*
X188505533Y-85756666D02*
X188029342Y-85756666D01*
X188029342Y-85756666D02*
X187648390Y-85661428D01*
X187648390Y-85661428D02*
X187457914Y-85566190D01*
X187457914Y-85566190D02*
X187362676Y-85470952D01*
X187362676Y-85470952D02*
X187267438Y-85280476D01*
X187267438Y-83375714D02*
X187267438Y-83185237D01*
X187267438Y-83185237D02*
X187362676Y-82994761D01*
X187362676Y-82994761D02*
X187457914Y-82899523D01*
X187457914Y-82899523D02*
X187648390Y-82804285D01*
X187648390Y-82804285D02*
X188029342Y-82709047D01*
X188029342Y-82709047D02*
X188505533Y-82709047D01*
X188505533Y-82709047D02*
X188886485Y-82804285D01*
X188886485Y-82804285D02*
X189076961Y-82899523D01*
X189076961Y-82899523D02*
X189172200Y-82994761D01*
X189172200Y-82994761D02*
X189267438Y-83185237D01*
X189267438Y-83185237D02*
X189267438Y-83375714D01*
X189267438Y-83375714D02*
X189172200Y-83566190D01*
X189172200Y-83566190D02*
X189076961Y-83661428D01*
X189076961Y-83661428D02*
X188886485Y-83756666D01*
X188886485Y-83756666D02*
X188505533Y-83851904D01*
X188505533Y-83851904D02*
X188029342Y-83851904D01*
X188029342Y-83851904D02*
X187648390Y-83756666D01*
X187648390Y-83756666D02*
X187457914Y-83661428D01*
X187457914Y-83661428D02*
X187362676Y-83566190D01*
X187362676Y-83566190D02*
X187267438Y-83375714D01*
X189267438Y-80328094D02*
X187934104Y-80328094D01*
X188124580Y-80328094D02*
X188029342Y-80232856D01*
X188029342Y-80232856D02*
X187934104Y-80042380D01*
X187934104Y-80042380D02*
X187934104Y-79756665D01*
X187934104Y-79756665D02*
X188029342Y-79566189D01*
X188029342Y-79566189D02*
X188219819Y-79470951D01*
X188219819Y-79470951D02*
X189267438Y-79470951D01*
X188219819Y-79470951D02*
X188029342Y-79375713D01*
X188029342Y-79375713D02*
X187934104Y-79185237D01*
X187934104Y-79185237D02*
X187934104Y-78899523D01*
X187934104Y-78899523D02*
X188029342Y-78709046D01*
X188029342Y-78709046D02*
X188219819Y-78613808D01*
X188219819Y-78613808D02*
X189267438Y-78613808D01*
X189267438Y-77661427D02*
X187934104Y-77661427D01*
X188124580Y-77661427D02*
X188029342Y-77566189D01*
X188029342Y-77566189D02*
X187934104Y-77375713D01*
X187934104Y-77375713D02*
X187934104Y-77089998D01*
X187934104Y-77089998D02*
X188029342Y-76899522D01*
X188029342Y-76899522D02*
X188219819Y-76804284D01*
X188219819Y-76804284D02*
X189267438Y-76804284D01*
X188219819Y-76804284D02*
X188029342Y-76709046D01*
X188029342Y-76709046D02*
X187934104Y-76518570D01*
X187934104Y-76518570D02*
X187934104Y-76232856D01*
X187934104Y-76232856D02*
X188029342Y-76042379D01*
X188029342Y-76042379D02*
X188219819Y-75947141D01*
X188219819Y-75947141D02*
X189267438Y-75947141D01*
X175760000Y-128270000D02*
X191086420Y-128270000D01*
X191086420Y-41910000D02*
X174490000Y-41910000D01*
X190500000Y-128270000D02*
X190500000Y-41910000D01*
X190500000Y-128270000D02*
X190500000Y-41910000D01*
X190500000Y-128270000D02*
X189913579Y-127143496D01*
X190500000Y-128270000D02*
X191086421Y-127143496D01*
X190500000Y-41910000D02*
X191086421Y-43036504D01*
X190500000Y-41910000D02*
X189913579Y-43036504D01*
X145479523Y-137737438D02*
X144527142Y-137737438D01*
X144527142Y-137737438D02*
X144431904Y-138689819D01*
X144431904Y-138689819D02*
X144527142Y-138594580D01*
X144527142Y-138594580D02*
X144717618Y-138499342D01*
X144717618Y-138499342D02*
X145193809Y-138499342D01*
X145193809Y-138499342D02*
X145384285Y-138594580D01*
X145384285Y-138594580D02*
X145479523Y-138689819D01*
X145479523Y-138689819D02*
X145574761Y-138880295D01*
X145574761Y-138880295D02*
X145574761Y-139356485D01*
X145574761Y-139356485D02*
X145479523Y-139546961D01*
X145479523Y-139546961D02*
X145384285Y-139642200D01*
X145384285Y-139642200D02*
X145193809Y-139737438D01*
X145193809Y-139737438D02*
X144717618Y-139737438D01*
X144717618Y-139737438D02*
X144527142Y-139642200D01*
X144527142Y-139642200D02*
X144431904Y-139546961D01*
X146241428Y-137737438D02*
X147479523Y-137737438D01*
X147479523Y-137737438D02*
X146812856Y-138499342D01*
X146812856Y-138499342D02*
X147098571Y-138499342D01*
X147098571Y-138499342D02*
X147289047Y-138594580D01*
X147289047Y-138594580D02*
X147384285Y-138689819D01*
X147384285Y-138689819D02*
X147479523Y-138880295D01*
X147479523Y-138880295D02*
X147479523Y-139356485D01*
X147479523Y-139356485D02*
X147384285Y-139546961D01*
X147384285Y-139546961D02*
X147289047Y-139642200D01*
X147289047Y-139642200D02*
X147098571Y-139737438D01*
X147098571Y-139737438D02*
X146527142Y-139737438D01*
X146527142Y-139737438D02*
X146336666Y-139642200D01*
X146336666Y-139642200D02*
X146241428Y-139546961D01*
X148431904Y-139642200D02*
X148431904Y-139737438D01*
X148431904Y-139737438D02*
X148336666Y-139927914D01*
X148336666Y-139927914D02*
X148241428Y-140023152D01*
X149098571Y-137737438D02*
X150336666Y-137737438D01*
X150336666Y-137737438D02*
X149669999Y-138499342D01*
X149669999Y-138499342D02*
X149955714Y-138499342D01*
X149955714Y-138499342D02*
X150146190Y-138594580D01*
X150146190Y-138594580D02*
X150241428Y-138689819D01*
X150241428Y-138689819D02*
X150336666Y-138880295D01*
X150336666Y-138880295D02*
X150336666Y-139356485D01*
X150336666Y-139356485D02*
X150241428Y-139546961D01*
X150241428Y-139546961D02*
X150146190Y-139642200D01*
X150146190Y-139642200D02*
X149955714Y-139737438D01*
X149955714Y-139737438D02*
X149384285Y-139737438D01*
X149384285Y-139737438D02*
X149193809Y-139642200D01*
X149193809Y-139642200D02*
X149098571Y-139546961D01*
X152050952Y-138404104D02*
X152050952Y-139737438D01*
X151574761Y-137642200D02*
X151098571Y-139070771D01*
X151098571Y-139070771D02*
X152336666Y-139070771D01*
X153479523Y-137737438D02*
X153670000Y-137737438D01*
X153670000Y-137737438D02*
X153860476Y-137832676D01*
X153860476Y-137832676D02*
X153955714Y-137927914D01*
X153955714Y-137927914D02*
X154050952Y-138118390D01*
X154050952Y-138118390D02*
X154146190Y-138499342D01*
X154146190Y-138499342D02*
X154146190Y-138975533D01*
X154146190Y-138975533D02*
X154050952Y-139356485D01*
X154050952Y-139356485D02*
X153955714Y-139546961D01*
X153955714Y-139546961D02*
X153860476Y-139642200D01*
X153860476Y-139642200D02*
X153670000Y-139737438D01*
X153670000Y-139737438D02*
X153479523Y-139737438D01*
X153479523Y-139737438D02*
X153289047Y-139642200D01*
X153289047Y-139642200D02*
X153193809Y-139546961D01*
X153193809Y-139546961D02*
X153098571Y-139356485D01*
X153098571Y-139356485D02*
X153003333Y-138975533D01*
X153003333Y-138975533D02*
X153003333Y-138499342D01*
X153003333Y-138499342D02*
X153098571Y-138118390D01*
X153098571Y-138118390D02*
X153193809Y-137927914D01*
X153193809Y-137927914D02*
X153289047Y-137832676D01*
X153289047Y-137832676D02*
X153479523Y-137737438D01*
X155384285Y-137737438D02*
X155574762Y-137737438D01*
X155574762Y-137737438D02*
X155765238Y-137832676D01*
X155765238Y-137832676D02*
X155860476Y-137927914D01*
X155860476Y-137927914D02*
X155955714Y-138118390D01*
X155955714Y-138118390D02*
X156050952Y-138499342D01*
X156050952Y-138499342D02*
X156050952Y-138975533D01*
X156050952Y-138975533D02*
X155955714Y-139356485D01*
X155955714Y-139356485D02*
X155860476Y-139546961D01*
X155860476Y-139546961D02*
X155765238Y-139642200D01*
X155765238Y-139642200D02*
X155574762Y-139737438D01*
X155574762Y-139737438D02*
X155384285Y-139737438D01*
X155384285Y-139737438D02*
X155193809Y-139642200D01*
X155193809Y-139642200D02*
X155098571Y-139546961D01*
X155098571Y-139546961D02*
X155003333Y-139356485D01*
X155003333Y-139356485D02*
X154908095Y-138975533D01*
X154908095Y-138975533D02*
X154908095Y-138499342D01*
X154908095Y-138499342D02*
X155003333Y-138118390D01*
X155003333Y-138118390D02*
X155098571Y-137927914D01*
X155098571Y-137927914D02*
X155193809Y-137832676D01*
X155193809Y-137832676D02*
X155384285Y-137737438D01*
X158431905Y-139737438D02*
X158431905Y-138404104D01*
X158431905Y-138594580D02*
X158527143Y-138499342D01*
X158527143Y-138499342D02*
X158717619Y-138404104D01*
X158717619Y-138404104D02*
X159003334Y-138404104D01*
X159003334Y-138404104D02*
X159193810Y-138499342D01*
X159193810Y-138499342D02*
X159289048Y-138689819D01*
X159289048Y-138689819D02*
X159289048Y-139737438D01*
X159289048Y-138689819D02*
X159384286Y-138499342D01*
X159384286Y-138499342D02*
X159574762Y-138404104D01*
X159574762Y-138404104D02*
X159860476Y-138404104D01*
X159860476Y-138404104D02*
X160050953Y-138499342D01*
X160050953Y-138499342D02*
X160146191Y-138689819D01*
X160146191Y-138689819D02*
X160146191Y-139737438D01*
X161098572Y-139737438D02*
X161098572Y-138404104D01*
X161098572Y-138594580D02*
X161193810Y-138499342D01*
X161193810Y-138499342D02*
X161384286Y-138404104D01*
X161384286Y-138404104D02*
X161670001Y-138404104D01*
X161670001Y-138404104D02*
X161860477Y-138499342D01*
X161860477Y-138499342D02*
X161955715Y-138689819D01*
X161955715Y-138689819D02*
X161955715Y-139737438D01*
X161955715Y-138689819D02*
X162050953Y-138499342D01*
X162050953Y-138499342D02*
X162241429Y-138404104D01*
X162241429Y-138404104D02*
X162527143Y-138404104D01*
X162527143Y-138404104D02*
X162717620Y-138499342D01*
X162717620Y-138499342D02*
X162812858Y-138689819D01*
X162812858Y-138689819D02*
X162812858Y-139737438D01*
X127000000Y-121150000D02*
X127000000Y-141556420D01*
X180340000Y-141556420D02*
X180340000Y-121150000D01*
X127000000Y-140970000D02*
X180340000Y-140970000D01*
X127000000Y-140970000D02*
X180340000Y-140970000D01*
X127000000Y-140970000D02*
X128126504Y-140383579D01*
X127000000Y-140970000D02*
X128126504Y-141556421D01*
X180340000Y-140970000D02*
X179213496Y-141556421D01*
X180340000Y-140970000D02*
X179213496Y-140383579D01*
X118687438Y-54100952D02*
X118687438Y-52767619D01*
X118687438Y-52767619D02*
X120687438Y-53624762D01*
X120592200Y-51910476D02*
X120687438Y-51910476D01*
X120687438Y-51910476D02*
X120877914Y-52005714D01*
X120877914Y-52005714D02*
X120973152Y-52100952D01*
X118687438Y-50196190D02*
X118687438Y-50577143D01*
X118687438Y-50577143D02*
X118782676Y-50767619D01*
X118782676Y-50767619D02*
X118877914Y-50862857D01*
X118877914Y-50862857D02*
X119163628Y-51053333D01*
X119163628Y-51053333D02*
X119544580Y-51148571D01*
X119544580Y-51148571D02*
X120306485Y-51148571D01*
X120306485Y-51148571D02*
X120496961Y-51053333D01*
X120496961Y-51053333D02*
X120592200Y-50958095D01*
X120592200Y-50958095D02*
X120687438Y-50767619D01*
X120687438Y-50767619D02*
X120687438Y-50386666D01*
X120687438Y-50386666D02*
X120592200Y-50196190D01*
X120592200Y-50196190D02*
X120496961Y-50100952D01*
X120496961Y-50100952D02*
X120306485Y-50005714D01*
X120306485Y-50005714D02*
X119830295Y-50005714D01*
X119830295Y-50005714D02*
X119639819Y-50100952D01*
X119639819Y-50100952D02*
X119544580Y-50196190D01*
X119544580Y-50196190D02*
X119449342Y-50386666D01*
X119449342Y-50386666D02*
X119449342Y-50767619D01*
X119449342Y-50767619D02*
X119544580Y-50958095D01*
X119544580Y-50958095D02*
X119639819Y-51053333D01*
X119639819Y-51053333D02*
X119830295Y-51148571D01*
X118877914Y-49243809D02*
X118782676Y-49148571D01*
X118782676Y-49148571D02*
X118687438Y-48958095D01*
X118687438Y-48958095D02*
X118687438Y-48481904D01*
X118687438Y-48481904D02*
X118782676Y-48291428D01*
X118782676Y-48291428D02*
X118877914Y-48196190D01*
X118877914Y-48196190D02*
X119068390Y-48100952D01*
X119068390Y-48100952D02*
X119258866Y-48100952D01*
X119258866Y-48100952D02*
X119544580Y-48196190D01*
X119544580Y-48196190D02*
X120687438Y-49339047D01*
X120687438Y-49339047D02*
X120687438Y-48100952D01*
X118687438Y-46862857D02*
X118687438Y-46672380D01*
X118687438Y-46672380D02*
X118782676Y-46481904D01*
X118782676Y-46481904D02*
X118877914Y-46386666D01*
X118877914Y-46386666D02*
X119068390Y-46291428D01*
X119068390Y-46291428D02*
X119449342Y-46196190D01*
X119449342Y-46196190D02*
X119925533Y-46196190D01*
X119925533Y-46196190D02*
X120306485Y-46291428D01*
X120306485Y-46291428D02*
X120496961Y-46386666D01*
X120496961Y-46386666D02*
X120592200Y-46481904D01*
X120592200Y-46481904D02*
X120687438Y-46672380D01*
X120687438Y-46672380D02*
X120687438Y-46862857D01*
X120687438Y-46862857D02*
X120592200Y-47053333D01*
X120592200Y-47053333D02*
X120496961Y-47148571D01*
X120496961Y-47148571D02*
X120306485Y-47243809D01*
X120306485Y-47243809D02*
X119925533Y-47339047D01*
X119925533Y-47339047D02*
X119449342Y-47339047D01*
X119449342Y-47339047D02*
X119068390Y-47243809D01*
X119068390Y-47243809D02*
X118877914Y-47148571D01*
X118877914Y-47148571D02*
X118782676Y-47053333D01*
X118782676Y-47053333D02*
X118687438Y-46862857D01*
X118687438Y-44958095D02*
X118687438Y-44767618D01*
X118687438Y-44767618D02*
X118782676Y-44577142D01*
X118782676Y-44577142D02*
X118877914Y-44481904D01*
X118877914Y-44481904D02*
X119068390Y-44386666D01*
X119068390Y-44386666D02*
X119449342Y-44291428D01*
X119449342Y-44291428D02*
X119925533Y-44291428D01*
X119925533Y-44291428D02*
X120306485Y-44386666D01*
X120306485Y-44386666D02*
X120496961Y-44481904D01*
X120496961Y-44481904D02*
X120592200Y-44577142D01*
X120592200Y-44577142D02*
X120687438Y-44767618D01*
X120687438Y-44767618D02*
X120687438Y-44958095D01*
X120687438Y-44958095D02*
X120592200Y-45148571D01*
X120592200Y-45148571D02*
X120496961Y-45243809D01*
X120496961Y-45243809D02*
X120306485Y-45339047D01*
X120306485Y-45339047D02*
X119925533Y-45434285D01*
X119925533Y-45434285D02*
X119449342Y-45434285D01*
X119449342Y-45434285D02*
X119068390Y-45339047D01*
X119068390Y-45339047D02*
X118877914Y-45243809D01*
X118877914Y-45243809D02*
X118782676Y-45148571D01*
X118782676Y-45148571D02*
X118687438Y-44958095D01*
X120687438Y-41910475D02*
X119354104Y-41910475D01*
X119544580Y-41910475D02*
X119449342Y-41815237D01*
X119449342Y-41815237D02*
X119354104Y-41624761D01*
X119354104Y-41624761D02*
X119354104Y-41339046D01*
X119354104Y-41339046D02*
X119449342Y-41148570D01*
X119449342Y-41148570D02*
X119639819Y-41053332D01*
X119639819Y-41053332D02*
X120687438Y-41053332D01*
X119639819Y-41053332D02*
X119449342Y-40958094D01*
X119449342Y-40958094D02*
X119354104Y-40767618D01*
X119354104Y-40767618D02*
X119354104Y-40481904D01*
X119354104Y-40481904D02*
X119449342Y-40291427D01*
X119449342Y-40291427D02*
X119639819Y-40196189D01*
X119639819Y-40196189D02*
X120687438Y-40196189D01*
X120687438Y-39243808D02*
X119354104Y-39243808D01*
X119544580Y-39243808D02*
X119449342Y-39148570D01*
X119449342Y-39148570D02*
X119354104Y-38958094D01*
X119354104Y-38958094D02*
X119354104Y-38672379D01*
X119354104Y-38672379D02*
X119449342Y-38481903D01*
X119449342Y-38481903D02*
X119639819Y-38386665D01*
X119639819Y-38386665D02*
X120687438Y-38386665D01*
X119639819Y-38386665D02*
X119449342Y-38291427D01*
X119449342Y-38291427D02*
X119354104Y-38100951D01*
X119354104Y-38100951D02*
X119354104Y-37815237D01*
X119354104Y-37815237D02*
X119449342Y-37624760D01*
X119449342Y-37624760D02*
X119639819Y-37529522D01*
X119639819Y-37529522D02*
X120687438Y-37529522D01*
X130310000Y-49530000D02*
X121333580Y-49530000D01*
X121333580Y-41910000D02*
X130310000Y-41910000D01*
X121920000Y-49530000D02*
X121920000Y-41910000D01*
X121920000Y-49530000D02*
X121920000Y-41910000D01*
X121920000Y-49530000D02*
X121333579Y-48403496D01*
X121920000Y-49530000D02*
X122506421Y-48403496D01*
X121920000Y-41910000D02*
X122506421Y-43036504D01*
X121920000Y-41910000D02*
X121333579Y-43036504D01*
X144336666Y-32327438D02*
X145574761Y-32327438D01*
X145574761Y-32327438D02*
X144908094Y-33089342D01*
X144908094Y-33089342D02*
X145193809Y-33089342D01*
X145193809Y-33089342D02*
X145384285Y-33184580D01*
X145384285Y-33184580D02*
X145479523Y-33279819D01*
X145479523Y-33279819D02*
X145574761Y-33470295D01*
X145574761Y-33470295D02*
X145574761Y-33946485D01*
X145574761Y-33946485D02*
X145479523Y-34136961D01*
X145479523Y-34136961D02*
X145384285Y-34232200D01*
X145384285Y-34232200D02*
X145193809Y-34327438D01*
X145193809Y-34327438D02*
X144622380Y-34327438D01*
X144622380Y-34327438D02*
X144431904Y-34232200D01*
X144431904Y-34232200D02*
X144336666Y-34136961D01*
X146241428Y-32327438D02*
X147479523Y-32327438D01*
X147479523Y-32327438D02*
X146812856Y-33089342D01*
X146812856Y-33089342D02*
X147098571Y-33089342D01*
X147098571Y-33089342D02*
X147289047Y-33184580D01*
X147289047Y-33184580D02*
X147384285Y-33279819D01*
X147384285Y-33279819D02*
X147479523Y-33470295D01*
X147479523Y-33470295D02*
X147479523Y-33946485D01*
X147479523Y-33946485D02*
X147384285Y-34136961D01*
X147384285Y-34136961D02*
X147289047Y-34232200D01*
X147289047Y-34232200D02*
X147098571Y-34327438D01*
X147098571Y-34327438D02*
X146527142Y-34327438D01*
X146527142Y-34327438D02*
X146336666Y-34232200D01*
X146336666Y-34232200D02*
X146241428Y-34136961D01*
X148431904Y-34232200D02*
X148431904Y-34327438D01*
X148431904Y-34327438D02*
X148336666Y-34517914D01*
X148336666Y-34517914D02*
X148241428Y-34613152D01*
X149669999Y-32327438D02*
X149860476Y-32327438D01*
X149860476Y-32327438D02*
X150050952Y-32422676D01*
X150050952Y-32422676D02*
X150146190Y-32517914D01*
X150146190Y-32517914D02*
X150241428Y-32708390D01*
X150241428Y-32708390D02*
X150336666Y-33089342D01*
X150336666Y-33089342D02*
X150336666Y-33565533D01*
X150336666Y-33565533D02*
X150241428Y-33946485D01*
X150241428Y-33946485D02*
X150146190Y-34136961D01*
X150146190Y-34136961D02*
X150050952Y-34232200D01*
X150050952Y-34232200D02*
X149860476Y-34327438D01*
X149860476Y-34327438D02*
X149669999Y-34327438D01*
X149669999Y-34327438D02*
X149479523Y-34232200D01*
X149479523Y-34232200D02*
X149384285Y-34136961D01*
X149384285Y-34136961D02*
X149289047Y-33946485D01*
X149289047Y-33946485D02*
X149193809Y-33565533D01*
X149193809Y-33565533D02*
X149193809Y-33089342D01*
X149193809Y-33089342D02*
X149289047Y-32708390D01*
X149289047Y-32708390D02*
X149384285Y-32517914D01*
X149384285Y-32517914D02*
X149479523Y-32422676D01*
X149479523Y-32422676D02*
X149669999Y-32327438D01*
X151098571Y-32517914D02*
X151193809Y-32422676D01*
X151193809Y-32422676D02*
X151384285Y-32327438D01*
X151384285Y-32327438D02*
X151860476Y-32327438D01*
X151860476Y-32327438D02*
X152050952Y-32422676D01*
X152050952Y-32422676D02*
X152146190Y-32517914D01*
X152146190Y-32517914D02*
X152241428Y-32708390D01*
X152241428Y-32708390D02*
X152241428Y-32898866D01*
X152241428Y-32898866D02*
X152146190Y-33184580D01*
X152146190Y-33184580D02*
X151003333Y-34327438D01*
X151003333Y-34327438D02*
X152241428Y-34327438D01*
X153479523Y-32327438D02*
X153670000Y-32327438D01*
X153670000Y-32327438D02*
X153860476Y-32422676D01*
X153860476Y-32422676D02*
X153955714Y-32517914D01*
X153955714Y-32517914D02*
X154050952Y-32708390D01*
X154050952Y-32708390D02*
X154146190Y-33089342D01*
X154146190Y-33089342D02*
X154146190Y-33565533D01*
X154146190Y-33565533D02*
X154050952Y-33946485D01*
X154050952Y-33946485D02*
X153955714Y-34136961D01*
X153955714Y-34136961D02*
X153860476Y-34232200D01*
X153860476Y-34232200D02*
X153670000Y-34327438D01*
X153670000Y-34327438D02*
X153479523Y-34327438D01*
X153479523Y-34327438D02*
X153289047Y-34232200D01*
X153289047Y-34232200D02*
X153193809Y-34136961D01*
X153193809Y-34136961D02*
X153098571Y-33946485D01*
X153098571Y-33946485D02*
X153003333Y-33565533D01*
X153003333Y-33565533D02*
X153003333Y-33089342D01*
X153003333Y-33089342D02*
X153098571Y-32708390D01*
X153098571Y-32708390D02*
X153193809Y-32517914D01*
X153193809Y-32517914D02*
X153289047Y-32422676D01*
X153289047Y-32422676D02*
X153479523Y-32327438D01*
X155384285Y-32327438D02*
X155574762Y-32327438D01*
X155574762Y-32327438D02*
X155765238Y-32422676D01*
X155765238Y-32422676D02*
X155860476Y-32517914D01*
X155860476Y-32517914D02*
X155955714Y-32708390D01*
X155955714Y-32708390D02*
X156050952Y-33089342D01*
X156050952Y-33089342D02*
X156050952Y-33565533D01*
X156050952Y-33565533D02*
X155955714Y-33946485D01*
X155955714Y-33946485D02*
X155860476Y-34136961D01*
X155860476Y-34136961D02*
X155765238Y-34232200D01*
X155765238Y-34232200D02*
X155574762Y-34327438D01*
X155574762Y-34327438D02*
X155384285Y-34327438D01*
X155384285Y-34327438D02*
X155193809Y-34232200D01*
X155193809Y-34232200D02*
X155098571Y-34136961D01*
X155098571Y-34136961D02*
X155003333Y-33946485D01*
X155003333Y-33946485D02*
X154908095Y-33565533D01*
X154908095Y-33565533D02*
X154908095Y-33089342D01*
X154908095Y-33089342D02*
X155003333Y-32708390D01*
X155003333Y-32708390D02*
X155098571Y-32517914D01*
X155098571Y-32517914D02*
X155193809Y-32422676D01*
X155193809Y-32422676D02*
X155384285Y-32327438D01*
X158431905Y-34327438D02*
X158431905Y-32994104D01*
X158431905Y-33184580D02*
X158527143Y-33089342D01*
X158527143Y-33089342D02*
X158717619Y-32994104D01*
X158717619Y-32994104D02*
X159003334Y-32994104D01*
X159003334Y-32994104D02*
X159193810Y-33089342D01*
X159193810Y-33089342D02*
X159289048Y-33279819D01*
X159289048Y-33279819D02*
X159289048Y-34327438D01*
X159289048Y-33279819D02*
X159384286Y-33089342D01*
X159384286Y-33089342D02*
X159574762Y-32994104D01*
X159574762Y-32994104D02*
X159860476Y-32994104D01*
X159860476Y-32994104D02*
X160050953Y-33089342D01*
X160050953Y-33089342D02*
X160146191Y-33279819D01*
X160146191Y-33279819D02*
X160146191Y-34327438D01*
X161098572Y-34327438D02*
X161098572Y-32994104D01*
X161098572Y-33184580D02*
X161193810Y-33089342D01*
X161193810Y-33089342D02*
X161384286Y-32994104D01*
X161384286Y-32994104D02*
X161670001Y-32994104D01*
X161670001Y-32994104D02*
X161860477Y-33089342D01*
X161860477Y-33089342D02*
X161955715Y-33279819D01*
X161955715Y-33279819D02*
X161955715Y-34327438D01*
X161955715Y-33279819D02*
X162050953Y-33089342D01*
X162050953Y-33089342D02*
X162241429Y-32994104D01*
X162241429Y-32994104D02*
X162527143Y-32994104D01*
X162527143Y-32994104D02*
X162717620Y-33089342D01*
X162717620Y-33089342D02*
X162812858Y-33279819D01*
X162812858Y-33279819D02*
X162812858Y-34327438D01*
X137160000Y-43950000D02*
X137160000Y-34973580D01*
X170180000Y-34973580D02*
X170180000Y-43950000D01*
X137160000Y-35560000D02*
X170180000Y-35560000D01*
X137160000Y-35560000D02*
X170180000Y-35560000D01*
X137160000Y-35560000D02*
X138286504Y-34973579D01*
X137160000Y-35560000D02*
X138286504Y-36146421D01*
X170180000Y-35560000D02*
X169053496Y-36146421D01*
X170180000Y-35560000D02*
X169053496Y-34973579D01*
X123984761Y-34327438D02*
X122841904Y-34327438D01*
X123413332Y-34327438D02*
X123413332Y-32327438D01*
X123413332Y-32327438D02*
X123222856Y-32613152D01*
X123222856Y-32613152D02*
X123032380Y-32803628D01*
X123032380Y-32803628D02*
X122841904Y-32898866D01*
X125222856Y-32327438D02*
X125413333Y-32327438D01*
X125413333Y-32327438D02*
X125603809Y-32422676D01*
X125603809Y-32422676D02*
X125699047Y-32517914D01*
X125699047Y-32517914D02*
X125794285Y-32708390D01*
X125794285Y-32708390D02*
X125889523Y-33089342D01*
X125889523Y-33089342D02*
X125889523Y-33565533D01*
X125889523Y-33565533D02*
X125794285Y-33946485D01*
X125794285Y-33946485D02*
X125699047Y-34136961D01*
X125699047Y-34136961D02*
X125603809Y-34232200D01*
X125603809Y-34232200D02*
X125413333Y-34327438D01*
X125413333Y-34327438D02*
X125222856Y-34327438D01*
X125222856Y-34327438D02*
X125032380Y-34232200D01*
X125032380Y-34232200D02*
X124937142Y-34136961D01*
X124937142Y-34136961D02*
X124841904Y-33946485D01*
X124841904Y-33946485D02*
X124746666Y-33565533D01*
X124746666Y-33565533D02*
X124746666Y-33089342D01*
X124746666Y-33089342D02*
X124841904Y-32708390D01*
X124841904Y-32708390D02*
X124937142Y-32517914D01*
X124937142Y-32517914D02*
X125032380Y-32422676D01*
X125032380Y-32422676D02*
X125222856Y-32327438D01*
X126841904Y-34232200D02*
X126841904Y-34327438D01*
X126841904Y-34327438D02*
X126746666Y-34517914D01*
X126746666Y-34517914D02*
X126651428Y-34613152D01*
X128746666Y-34327438D02*
X127603809Y-34327438D01*
X128175237Y-34327438D02*
X128175237Y-32327438D01*
X128175237Y-32327438D02*
X127984761Y-32613152D01*
X127984761Y-32613152D02*
X127794285Y-32803628D01*
X127794285Y-32803628D02*
X127603809Y-32898866D01*
X130460952Y-32327438D02*
X130079999Y-32327438D01*
X130079999Y-32327438D02*
X129889523Y-32422676D01*
X129889523Y-32422676D02*
X129794285Y-32517914D01*
X129794285Y-32517914D02*
X129603809Y-32803628D01*
X129603809Y-32803628D02*
X129508571Y-33184580D01*
X129508571Y-33184580D02*
X129508571Y-33946485D01*
X129508571Y-33946485D02*
X129603809Y-34136961D01*
X129603809Y-34136961D02*
X129699047Y-34232200D01*
X129699047Y-34232200D02*
X129889523Y-34327438D01*
X129889523Y-34327438D02*
X130270476Y-34327438D01*
X130270476Y-34327438D02*
X130460952Y-34232200D01*
X130460952Y-34232200D02*
X130556190Y-34136961D01*
X130556190Y-34136961D02*
X130651428Y-33946485D01*
X130651428Y-33946485D02*
X130651428Y-33470295D01*
X130651428Y-33470295D02*
X130556190Y-33279819D01*
X130556190Y-33279819D02*
X130460952Y-33184580D01*
X130460952Y-33184580D02*
X130270476Y-33089342D01*
X130270476Y-33089342D02*
X129889523Y-33089342D01*
X129889523Y-33089342D02*
X129699047Y-33184580D01*
X129699047Y-33184580D02*
X129603809Y-33279819D01*
X129603809Y-33279819D02*
X129508571Y-33470295D01*
X131889523Y-32327438D02*
X132080000Y-32327438D01*
X132080000Y-32327438D02*
X132270476Y-32422676D01*
X132270476Y-32422676D02*
X132365714Y-32517914D01*
X132365714Y-32517914D02*
X132460952Y-32708390D01*
X132460952Y-32708390D02*
X132556190Y-33089342D01*
X132556190Y-33089342D02*
X132556190Y-33565533D01*
X132556190Y-33565533D02*
X132460952Y-33946485D01*
X132460952Y-33946485D02*
X132365714Y-34136961D01*
X132365714Y-34136961D02*
X132270476Y-34232200D01*
X132270476Y-34232200D02*
X132080000Y-34327438D01*
X132080000Y-34327438D02*
X131889523Y-34327438D01*
X131889523Y-34327438D02*
X131699047Y-34232200D01*
X131699047Y-34232200D02*
X131603809Y-34136961D01*
X131603809Y-34136961D02*
X131508571Y-33946485D01*
X131508571Y-33946485D02*
X131413333Y-33565533D01*
X131413333Y-33565533D02*
X131413333Y-33089342D01*
X131413333Y-33089342D02*
X131508571Y-32708390D01*
X131508571Y-32708390D02*
X131603809Y-32517914D01*
X131603809Y-32517914D02*
X131699047Y-32422676D01*
X131699047Y-32422676D02*
X131889523Y-32327438D01*
X133794285Y-32327438D02*
X133984762Y-32327438D01*
X133984762Y-32327438D02*
X134175238Y-32422676D01*
X134175238Y-32422676D02*
X134270476Y-32517914D01*
X134270476Y-32517914D02*
X134365714Y-32708390D01*
X134365714Y-32708390D02*
X134460952Y-33089342D01*
X134460952Y-33089342D02*
X134460952Y-33565533D01*
X134460952Y-33565533D02*
X134365714Y-33946485D01*
X134365714Y-33946485D02*
X134270476Y-34136961D01*
X134270476Y-34136961D02*
X134175238Y-34232200D01*
X134175238Y-34232200D02*
X133984762Y-34327438D01*
X133984762Y-34327438D02*
X133794285Y-34327438D01*
X133794285Y-34327438D02*
X133603809Y-34232200D01*
X133603809Y-34232200D02*
X133508571Y-34136961D01*
X133508571Y-34136961D02*
X133413333Y-33946485D01*
X133413333Y-33946485D02*
X133318095Y-33565533D01*
X133318095Y-33565533D02*
X133318095Y-33089342D01*
X133318095Y-33089342D02*
X133413333Y-32708390D01*
X133413333Y-32708390D02*
X133508571Y-32517914D01*
X133508571Y-32517914D02*
X133603809Y-32422676D01*
X133603809Y-32422676D02*
X133794285Y-32327438D01*
X136841905Y-34327438D02*
X136841905Y-32994104D01*
X136841905Y-33184580D02*
X136937143Y-33089342D01*
X136937143Y-33089342D02*
X137127619Y-32994104D01*
X137127619Y-32994104D02*
X137413334Y-32994104D01*
X137413334Y-32994104D02*
X137603810Y-33089342D01*
X137603810Y-33089342D02*
X137699048Y-33279819D01*
X137699048Y-33279819D02*
X137699048Y-34327438D01*
X137699048Y-33279819D02*
X137794286Y-33089342D01*
X137794286Y-33089342D02*
X137984762Y-32994104D01*
X137984762Y-32994104D02*
X138270476Y-32994104D01*
X138270476Y-32994104D02*
X138460953Y-33089342D01*
X138460953Y-33089342D02*
X138556191Y-33279819D01*
X138556191Y-33279819D02*
X138556191Y-34327438D01*
X139508572Y-34327438D02*
X139508572Y-32994104D01*
X139508572Y-33184580D02*
X139603810Y-33089342D01*
X139603810Y-33089342D02*
X139794286Y-32994104D01*
X139794286Y-32994104D02*
X140080001Y-32994104D01*
X140080001Y-32994104D02*
X140270477Y-33089342D01*
X140270477Y-33089342D02*
X140365715Y-33279819D01*
X140365715Y-33279819D02*
X140365715Y-34327438D01*
X140365715Y-33279819D02*
X140460953Y-33089342D01*
X140460953Y-33089342D02*
X140651429Y-32994104D01*
X140651429Y-32994104D02*
X140937143Y-32994104D01*
X140937143Y-32994104D02*
X141127620Y-33089342D01*
X141127620Y-33089342D02*
X141222858Y-33279819D01*
X141222858Y-33279819D02*
X141222858Y-34327438D01*
X137160000Y-43950000D02*
X137160000Y-34973580D01*
X127000000Y-34973580D02*
X127000000Y-43950000D01*
X137160000Y-35560000D02*
X127000000Y-35560000D01*
X137160000Y-35560000D02*
X127000000Y-35560000D01*
X137160000Y-35560000D02*
X136033496Y-36146421D01*
X137160000Y-35560000D02*
X136033496Y-34973579D01*
X127000000Y-35560000D02*
X128126504Y-34973579D01*
X127000000Y-35560000D02*
X128126504Y-36146421D01*
X181107914Y-51465714D02*
X181012676Y-51370476D01*
X181012676Y-51370476D02*
X180917438Y-51180000D01*
X180917438Y-51180000D02*
X180917438Y-50703809D01*
X180917438Y-50703809D02*
X181012676Y-50513333D01*
X181012676Y-50513333D02*
X181107914Y-50418095D01*
X181107914Y-50418095D02*
X181298390Y-50322857D01*
X181298390Y-50322857D02*
X181488866Y-50322857D01*
X181488866Y-50322857D02*
X181774580Y-50418095D01*
X181774580Y-50418095D02*
X182917438Y-51560952D01*
X182917438Y-51560952D02*
X182917438Y-50322857D01*
X182822200Y-49370476D02*
X182917438Y-49370476D01*
X182917438Y-49370476D02*
X183107914Y-49465714D01*
X183107914Y-49465714D02*
X183203152Y-49560952D01*
X180917438Y-47560952D02*
X180917438Y-48513333D01*
X180917438Y-48513333D02*
X181869819Y-48608571D01*
X181869819Y-48608571D02*
X181774580Y-48513333D01*
X181774580Y-48513333D02*
X181679342Y-48322857D01*
X181679342Y-48322857D02*
X181679342Y-47846666D01*
X181679342Y-47846666D02*
X181774580Y-47656190D01*
X181774580Y-47656190D02*
X181869819Y-47560952D01*
X181869819Y-47560952D02*
X182060295Y-47465714D01*
X182060295Y-47465714D02*
X182536485Y-47465714D01*
X182536485Y-47465714D02*
X182726961Y-47560952D01*
X182726961Y-47560952D02*
X182822200Y-47656190D01*
X182822200Y-47656190D02*
X182917438Y-47846666D01*
X182917438Y-47846666D02*
X182917438Y-48322857D01*
X182917438Y-48322857D02*
X182822200Y-48513333D01*
X182822200Y-48513333D02*
X182726961Y-48608571D01*
X181584104Y-45751428D02*
X182917438Y-45751428D01*
X180822200Y-46227619D02*
X182250771Y-46703809D01*
X182250771Y-46703809D02*
X182250771Y-45465714D01*
X180917438Y-44322857D02*
X180917438Y-44132380D01*
X180917438Y-44132380D02*
X181012676Y-43941904D01*
X181012676Y-43941904D02*
X181107914Y-43846666D01*
X181107914Y-43846666D02*
X181298390Y-43751428D01*
X181298390Y-43751428D02*
X181679342Y-43656190D01*
X181679342Y-43656190D02*
X182155533Y-43656190D01*
X182155533Y-43656190D02*
X182536485Y-43751428D01*
X182536485Y-43751428D02*
X182726961Y-43846666D01*
X182726961Y-43846666D02*
X182822200Y-43941904D01*
X182822200Y-43941904D02*
X182917438Y-44132380D01*
X182917438Y-44132380D02*
X182917438Y-44322857D01*
X182917438Y-44322857D02*
X182822200Y-44513333D01*
X182822200Y-44513333D02*
X182726961Y-44608571D01*
X182726961Y-44608571D02*
X182536485Y-44703809D01*
X182536485Y-44703809D02*
X182155533Y-44799047D01*
X182155533Y-44799047D02*
X181679342Y-44799047D01*
X181679342Y-44799047D02*
X181298390Y-44703809D01*
X181298390Y-44703809D02*
X181107914Y-44608571D01*
X181107914Y-44608571D02*
X181012676Y-44513333D01*
X181012676Y-44513333D02*
X180917438Y-44322857D01*
X180917438Y-42418095D02*
X180917438Y-42227618D01*
X180917438Y-42227618D02*
X181012676Y-42037142D01*
X181012676Y-42037142D02*
X181107914Y-41941904D01*
X181107914Y-41941904D02*
X181298390Y-41846666D01*
X181298390Y-41846666D02*
X181679342Y-41751428D01*
X181679342Y-41751428D02*
X182155533Y-41751428D01*
X182155533Y-41751428D02*
X182536485Y-41846666D01*
X182536485Y-41846666D02*
X182726961Y-41941904D01*
X182726961Y-41941904D02*
X182822200Y-42037142D01*
X182822200Y-42037142D02*
X182917438Y-42227618D01*
X182917438Y-42227618D02*
X182917438Y-42418095D01*
X182917438Y-42418095D02*
X182822200Y-42608571D01*
X182822200Y-42608571D02*
X182726961Y-42703809D01*
X182726961Y-42703809D02*
X182536485Y-42799047D01*
X182536485Y-42799047D02*
X182155533Y-42894285D01*
X182155533Y-42894285D02*
X181679342Y-42894285D01*
X181679342Y-42894285D02*
X181298390Y-42799047D01*
X181298390Y-42799047D02*
X181107914Y-42703809D01*
X181107914Y-42703809D02*
X181012676Y-42608571D01*
X181012676Y-42608571D02*
X180917438Y-42418095D01*
X182917438Y-39370475D02*
X181584104Y-39370475D01*
X181774580Y-39370475D02*
X181679342Y-39275237D01*
X181679342Y-39275237D02*
X181584104Y-39084761D01*
X181584104Y-39084761D02*
X181584104Y-38799046D01*
X181584104Y-38799046D02*
X181679342Y-38608570D01*
X181679342Y-38608570D02*
X181869819Y-38513332D01*
X181869819Y-38513332D02*
X182917438Y-38513332D01*
X181869819Y-38513332D02*
X181679342Y-38418094D01*
X181679342Y-38418094D02*
X181584104Y-38227618D01*
X181584104Y-38227618D02*
X181584104Y-37941904D01*
X181584104Y-37941904D02*
X181679342Y-37751427D01*
X181679342Y-37751427D02*
X181869819Y-37656189D01*
X181869819Y-37656189D02*
X182917438Y-37656189D01*
X182917438Y-36703808D02*
X181584104Y-36703808D01*
X181774580Y-36703808D02*
X181679342Y-36608570D01*
X181679342Y-36608570D02*
X181584104Y-36418094D01*
X181584104Y-36418094D02*
X181584104Y-36132379D01*
X181584104Y-36132379D02*
X181679342Y-35941903D01*
X181679342Y-35941903D02*
X181869819Y-35846665D01*
X181869819Y-35846665D02*
X182917438Y-35846665D01*
X181869819Y-35846665D02*
X181679342Y-35751427D01*
X181679342Y-35751427D02*
X181584104Y-35560951D01*
X181584104Y-35560951D02*
X181584104Y-35275237D01*
X181584104Y-35275237D02*
X181679342Y-35084760D01*
X181679342Y-35084760D02*
X181869819Y-34989522D01*
X181869819Y-34989522D02*
X182917438Y-34989522D01*
D11*
X170680000Y-44450000D02*
X184736420Y-44450000D01*
X184736420Y-41910000D02*
X170680000Y-41910000D01*
X184150000Y-44450000D02*
X184150000Y-41910000D01*
X184150000Y-44450000D02*
X184150000Y-41910000D01*
X184150000Y-44450000D02*
X183563579Y-43323496D01*
X184150000Y-44450000D02*
X184736421Y-43323496D01*
X184150000Y-41910000D02*
X184736421Y-43036504D01*
X184150000Y-41910000D02*
X183563579Y-43036504D01*
D10*
X184727438Y-132428333D02*
X184727438Y-132809286D01*
X184727438Y-132809286D02*
X184822676Y-132999762D01*
X184822676Y-132999762D02*
X184917914Y-133095000D01*
X184917914Y-133095000D02*
X185203628Y-133285476D01*
X185203628Y-133285476D02*
X185584580Y-133380714D01*
X185584580Y-133380714D02*
X186346485Y-133380714D01*
X186346485Y-133380714D02*
X186536961Y-133285476D01*
X186536961Y-133285476D02*
X186632200Y-133190238D01*
X186632200Y-133190238D02*
X186727438Y-132999762D01*
X186727438Y-132999762D02*
X186727438Y-132618809D01*
X186727438Y-132618809D02*
X186632200Y-132428333D01*
X186632200Y-132428333D02*
X186536961Y-132333095D01*
X186536961Y-132333095D02*
X186346485Y-132237857D01*
X186346485Y-132237857D02*
X185870295Y-132237857D01*
X185870295Y-132237857D02*
X185679819Y-132333095D01*
X185679819Y-132333095D02*
X185584580Y-132428333D01*
X185584580Y-132428333D02*
X185489342Y-132618809D01*
X185489342Y-132618809D02*
X185489342Y-132999762D01*
X185489342Y-132999762D02*
X185584580Y-133190238D01*
X185584580Y-133190238D02*
X185679819Y-133285476D01*
X185679819Y-133285476D02*
X185870295Y-133380714D01*
X186632200Y-131285476D02*
X186727438Y-131285476D01*
X186727438Y-131285476D02*
X186917914Y-131380714D01*
X186917914Y-131380714D02*
X187013152Y-131475952D01*
X184727438Y-130618809D02*
X184727438Y-129380714D01*
X184727438Y-129380714D02*
X185489342Y-130047381D01*
X185489342Y-130047381D02*
X185489342Y-129761666D01*
X185489342Y-129761666D02*
X185584580Y-129571190D01*
X185584580Y-129571190D02*
X185679819Y-129475952D01*
X185679819Y-129475952D02*
X185870295Y-129380714D01*
X185870295Y-129380714D02*
X186346485Y-129380714D01*
X186346485Y-129380714D02*
X186536961Y-129475952D01*
X186536961Y-129475952D02*
X186632200Y-129571190D01*
X186632200Y-129571190D02*
X186727438Y-129761666D01*
X186727438Y-129761666D02*
X186727438Y-130333095D01*
X186727438Y-130333095D02*
X186632200Y-130523571D01*
X186632200Y-130523571D02*
X186536961Y-130618809D01*
X184727438Y-127571190D02*
X184727438Y-128523571D01*
X184727438Y-128523571D02*
X185679819Y-128618809D01*
X185679819Y-128618809D02*
X185584580Y-128523571D01*
X185584580Y-128523571D02*
X185489342Y-128333095D01*
X185489342Y-128333095D02*
X185489342Y-127856904D01*
X185489342Y-127856904D02*
X185584580Y-127666428D01*
X185584580Y-127666428D02*
X185679819Y-127571190D01*
X185679819Y-127571190D02*
X185870295Y-127475952D01*
X185870295Y-127475952D02*
X186346485Y-127475952D01*
X186346485Y-127475952D02*
X186536961Y-127571190D01*
X186536961Y-127571190D02*
X186632200Y-127666428D01*
X186632200Y-127666428D02*
X186727438Y-127856904D01*
X186727438Y-127856904D02*
X186727438Y-128333095D01*
X186727438Y-128333095D02*
X186632200Y-128523571D01*
X186632200Y-128523571D02*
X186536961Y-128618809D01*
X184727438Y-126237857D02*
X184727438Y-126047380D01*
X184727438Y-126047380D02*
X184822676Y-125856904D01*
X184822676Y-125856904D02*
X184917914Y-125761666D01*
X184917914Y-125761666D02*
X185108390Y-125666428D01*
X185108390Y-125666428D02*
X185489342Y-125571190D01*
X185489342Y-125571190D02*
X185965533Y-125571190D01*
X185965533Y-125571190D02*
X186346485Y-125666428D01*
X186346485Y-125666428D02*
X186536961Y-125761666D01*
X186536961Y-125761666D02*
X186632200Y-125856904D01*
X186632200Y-125856904D02*
X186727438Y-126047380D01*
X186727438Y-126047380D02*
X186727438Y-126237857D01*
X186727438Y-126237857D02*
X186632200Y-126428333D01*
X186632200Y-126428333D02*
X186536961Y-126523571D01*
X186536961Y-126523571D02*
X186346485Y-126618809D01*
X186346485Y-126618809D02*
X185965533Y-126714047D01*
X185965533Y-126714047D02*
X185489342Y-126714047D01*
X185489342Y-126714047D02*
X185108390Y-126618809D01*
X185108390Y-126618809D02*
X184917914Y-126523571D01*
X184917914Y-126523571D02*
X184822676Y-126428333D01*
X184822676Y-126428333D02*
X184727438Y-126237857D01*
X184727438Y-124333095D02*
X184727438Y-124142618D01*
X184727438Y-124142618D02*
X184822676Y-123952142D01*
X184822676Y-123952142D02*
X184917914Y-123856904D01*
X184917914Y-123856904D02*
X185108390Y-123761666D01*
X185108390Y-123761666D02*
X185489342Y-123666428D01*
X185489342Y-123666428D02*
X185965533Y-123666428D01*
X185965533Y-123666428D02*
X186346485Y-123761666D01*
X186346485Y-123761666D02*
X186536961Y-123856904D01*
X186536961Y-123856904D02*
X186632200Y-123952142D01*
X186632200Y-123952142D02*
X186727438Y-124142618D01*
X186727438Y-124142618D02*
X186727438Y-124333095D01*
X186727438Y-124333095D02*
X186632200Y-124523571D01*
X186632200Y-124523571D02*
X186536961Y-124618809D01*
X186536961Y-124618809D02*
X186346485Y-124714047D01*
X186346485Y-124714047D02*
X185965533Y-124809285D01*
X185965533Y-124809285D02*
X185489342Y-124809285D01*
X185489342Y-124809285D02*
X185108390Y-124714047D01*
X185108390Y-124714047D02*
X184917914Y-124618809D01*
X184917914Y-124618809D02*
X184822676Y-124523571D01*
X184822676Y-124523571D02*
X184727438Y-124333095D01*
X186727438Y-121285475D02*
X185394104Y-121285475D01*
X185584580Y-121285475D02*
X185489342Y-121190237D01*
X185489342Y-121190237D02*
X185394104Y-120999761D01*
X185394104Y-120999761D02*
X185394104Y-120714046D01*
X185394104Y-120714046D02*
X185489342Y-120523570D01*
X185489342Y-120523570D02*
X185679819Y-120428332D01*
X185679819Y-120428332D02*
X186727438Y-120428332D01*
X185679819Y-120428332D02*
X185489342Y-120333094D01*
X185489342Y-120333094D02*
X185394104Y-120142618D01*
X185394104Y-120142618D02*
X185394104Y-119856904D01*
X185394104Y-119856904D02*
X185489342Y-119666427D01*
X185489342Y-119666427D02*
X185679819Y-119571189D01*
X185679819Y-119571189D02*
X186727438Y-119571189D01*
X186727438Y-118618808D02*
X185394104Y-118618808D01*
X185584580Y-118618808D02*
X185489342Y-118523570D01*
X185489342Y-118523570D02*
X185394104Y-118333094D01*
X185394104Y-118333094D02*
X185394104Y-118047379D01*
X185394104Y-118047379D02*
X185489342Y-117856903D01*
X185489342Y-117856903D02*
X185679819Y-117761665D01*
X185679819Y-117761665D02*
X186727438Y-117761665D01*
X185679819Y-117761665D02*
X185489342Y-117666427D01*
X185489342Y-117666427D02*
X185394104Y-117475951D01*
X185394104Y-117475951D02*
X185394104Y-117190237D01*
X185394104Y-117190237D02*
X185489342Y-116999760D01*
X185489342Y-116999760D02*
X185679819Y-116904522D01*
X185679819Y-116904522D02*
X186727438Y-116904522D01*
D11*
X170680000Y-128270000D02*
X188546420Y-128270000D01*
X188546420Y-121920000D02*
X170680000Y-121920000D01*
X187960000Y-128270000D02*
X187960000Y-121920000D01*
X187960000Y-128270000D02*
X187960000Y-121920000D01*
X187960000Y-128270000D02*
X187373579Y-127143496D01*
X187960000Y-128270000D02*
X188546421Y-127143496D01*
X187960000Y-121920000D02*
X188546421Y-123046504D01*
X187960000Y-121920000D02*
X187373579Y-123046504D01*
D10*
X144336666Y-128847438D02*
X145574761Y-128847438D01*
X145574761Y-128847438D02*
X144908094Y-129609342D01*
X144908094Y-129609342D02*
X145193809Y-129609342D01*
X145193809Y-129609342D02*
X145384285Y-129704580D01*
X145384285Y-129704580D02*
X145479523Y-129799819D01*
X145479523Y-129799819D02*
X145574761Y-129990295D01*
X145574761Y-129990295D02*
X145574761Y-130466485D01*
X145574761Y-130466485D02*
X145479523Y-130656961D01*
X145479523Y-130656961D02*
X145384285Y-130752200D01*
X145384285Y-130752200D02*
X145193809Y-130847438D01*
X145193809Y-130847438D02*
X144622380Y-130847438D01*
X144622380Y-130847438D02*
X144431904Y-130752200D01*
X144431904Y-130752200D02*
X144336666Y-130656961D01*
X146241428Y-128847438D02*
X147479523Y-128847438D01*
X147479523Y-128847438D02*
X146812856Y-129609342D01*
X146812856Y-129609342D02*
X147098571Y-129609342D01*
X147098571Y-129609342D02*
X147289047Y-129704580D01*
X147289047Y-129704580D02*
X147384285Y-129799819D01*
X147384285Y-129799819D02*
X147479523Y-129990295D01*
X147479523Y-129990295D02*
X147479523Y-130466485D01*
X147479523Y-130466485D02*
X147384285Y-130656961D01*
X147384285Y-130656961D02*
X147289047Y-130752200D01*
X147289047Y-130752200D02*
X147098571Y-130847438D01*
X147098571Y-130847438D02*
X146527142Y-130847438D01*
X146527142Y-130847438D02*
X146336666Y-130752200D01*
X146336666Y-130752200D02*
X146241428Y-130656961D01*
X148431904Y-130752200D02*
X148431904Y-130847438D01*
X148431904Y-130847438D02*
X148336666Y-131037914D01*
X148336666Y-131037914D02*
X148241428Y-131133152D01*
X149669999Y-128847438D02*
X149860476Y-128847438D01*
X149860476Y-128847438D02*
X150050952Y-128942676D01*
X150050952Y-128942676D02*
X150146190Y-129037914D01*
X150146190Y-129037914D02*
X150241428Y-129228390D01*
X150241428Y-129228390D02*
X150336666Y-129609342D01*
X150336666Y-129609342D02*
X150336666Y-130085533D01*
X150336666Y-130085533D02*
X150241428Y-130466485D01*
X150241428Y-130466485D02*
X150146190Y-130656961D01*
X150146190Y-130656961D02*
X150050952Y-130752200D01*
X150050952Y-130752200D02*
X149860476Y-130847438D01*
X149860476Y-130847438D02*
X149669999Y-130847438D01*
X149669999Y-130847438D02*
X149479523Y-130752200D01*
X149479523Y-130752200D02*
X149384285Y-130656961D01*
X149384285Y-130656961D02*
X149289047Y-130466485D01*
X149289047Y-130466485D02*
X149193809Y-130085533D01*
X149193809Y-130085533D02*
X149193809Y-129609342D01*
X149193809Y-129609342D02*
X149289047Y-129228390D01*
X149289047Y-129228390D02*
X149384285Y-129037914D01*
X149384285Y-129037914D02*
X149479523Y-128942676D01*
X149479523Y-128942676D02*
X149669999Y-128847438D01*
X151098571Y-129037914D02*
X151193809Y-128942676D01*
X151193809Y-128942676D02*
X151384285Y-128847438D01*
X151384285Y-128847438D02*
X151860476Y-128847438D01*
X151860476Y-128847438D02*
X152050952Y-128942676D01*
X152050952Y-128942676D02*
X152146190Y-129037914D01*
X152146190Y-129037914D02*
X152241428Y-129228390D01*
X152241428Y-129228390D02*
X152241428Y-129418866D01*
X152241428Y-129418866D02*
X152146190Y-129704580D01*
X152146190Y-129704580D02*
X151003333Y-130847438D01*
X151003333Y-130847438D02*
X152241428Y-130847438D01*
X153479523Y-128847438D02*
X153670000Y-128847438D01*
X153670000Y-128847438D02*
X153860476Y-128942676D01*
X153860476Y-128942676D02*
X153955714Y-129037914D01*
X153955714Y-129037914D02*
X154050952Y-129228390D01*
X154050952Y-129228390D02*
X154146190Y-129609342D01*
X154146190Y-129609342D02*
X154146190Y-130085533D01*
X154146190Y-130085533D02*
X154050952Y-130466485D01*
X154050952Y-130466485D02*
X153955714Y-130656961D01*
X153955714Y-130656961D02*
X153860476Y-130752200D01*
X153860476Y-130752200D02*
X153670000Y-130847438D01*
X153670000Y-130847438D02*
X153479523Y-130847438D01*
X153479523Y-130847438D02*
X153289047Y-130752200D01*
X153289047Y-130752200D02*
X153193809Y-130656961D01*
X153193809Y-130656961D02*
X153098571Y-130466485D01*
X153098571Y-130466485D02*
X153003333Y-130085533D01*
X153003333Y-130085533D02*
X153003333Y-129609342D01*
X153003333Y-129609342D02*
X153098571Y-129228390D01*
X153098571Y-129228390D02*
X153193809Y-129037914D01*
X153193809Y-129037914D02*
X153289047Y-128942676D01*
X153289047Y-128942676D02*
X153479523Y-128847438D01*
X155384285Y-128847438D02*
X155574762Y-128847438D01*
X155574762Y-128847438D02*
X155765238Y-128942676D01*
X155765238Y-128942676D02*
X155860476Y-129037914D01*
X155860476Y-129037914D02*
X155955714Y-129228390D01*
X155955714Y-129228390D02*
X156050952Y-129609342D01*
X156050952Y-129609342D02*
X156050952Y-130085533D01*
X156050952Y-130085533D02*
X155955714Y-130466485D01*
X155955714Y-130466485D02*
X155860476Y-130656961D01*
X155860476Y-130656961D02*
X155765238Y-130752200D01*
X155765238Y-130752200D02*
X155574762Y-130847438D01*
X155574762Y-130847438D02*
X155384285Y-130847438D01*
X155384285Y-130847438D02*
X155193809Y-130752200D01*
X155193809Y-130752200D02*
X155098571Y-130656961D01*
X155098571Y-130656961D02*
X155003333Y-130466485D01*
X155003333Y-130466485D02*
X154908095Y-130085533D01*
X154908095Y-130085533D02*
X154908095Y-129609342D01*
X154908095Y-129609342D02*
X155003333Y-129228390D01*
X155003333Y-129228390D02*
X155098571Y-129037914D01*
X155098571Y-129037914D02*
X155193809Y-128942676D01*
X155193809Y-128942676D02*
X155384285Y-128847438D01*
X158431905Y-130847438D02*
X158431905Y-129514104D01*
X158431905Y-129704580D02*
X158527143Y-129609342D01*
X158527143Y-129609342D02*
X158717619Y-129514104D01*
X158717619Y-129514104D02*
X159003334Y-129514104D01*
X159003334Y-129514104D02*
X159193810Y-129609342D01*
X159193810Y-129609342D02*
X159289048Y-129799819D01*
X159289048Y-129799819D02*
X159289048Y-130847438D01*
X159289048Y-129799819D02*
X159384286Y-129609342D01*
X159384286Y-129609342D02*
X159574762Y-129514104D01*
X159574762Y-129514104D02*
X159860476Y-129514104D01*
X159860476Y-129514104D02*
X160050953Y-129609342D01*
X160050953Y-129609342D02*
X160146191Y-129799819D01*
X160146191Y-129799819D02*
X160146191Y-130847438D01*
X161098572Y-130847438D02*
X161098572Y-129514104D01*
X161098572Y-129704580D02*
X161193810Y-129609342D01*
X161193810Y-129609342D02*
X161384286Y-129514104D01*
X161384286Y-129514104D02*
X161670001Y-129514104D01*
X161670001Y-129514104D02*
X161860477Y-129609342D01*
X161860477Y-129609342D02*
X161955715Y-129799819D01*
X161955715Y-129799819D02*
X161955715Y-130847438D01*
X161955715Y-129799819D02*
X162050953Y-129609342D01*
X162050953Y-129609342D02*
X162241429Y-129514104D01*
X162241429Y-129514104D02*
X162527143Y-129514104D01*
X162527143Y-129514104D02*
X162717620Y-129609342D01*
X162717620Y-129609342D02*
X162812858Y-129799819D01*
X162812858Y-129799819D02*
X162812858Y-130847438D01*
X137160000Y-122420000D02*
X137160000Y-132666420D01*
X170180000Y-132666420D02*
X170180000Y-122420000D01*
X137160000Y-132080000D02*
X170180000Y-132080000D01*
X137160000Y-132080000D02*
X170180000Y-132080000D01*
X137160000Y-132080000D02*
X138286504Y-131493579D01*
X137160000Y-132080000D02*
X138286504Y-132666421D01*
X170180000Y-132080000D02*
X169053496Y-132666421D01*
X170180000Y-132080000D02*
X169053496Y-131493579D01*
M02*
