M48
METRIC
T1C0.800
T2C1.000
T3C2.300
%
G90
G05
T1
X130.81Y-49.53
X130.81Y-52.07
X130.81Y-54.61
X130.81Y-57.15
X130.81Y-59.69
X130.81Y-62.23
X130.81Y-64.77
X130.81Y-67.31
X130.81Y-69.85
X130.81Y-72.39
X130.81Y-74.93
X130.81Y-77.47
X130.81Y-80.01
X130.81Y-82.55
X130.81Y-85.09
X130.81Y-87.63
X130.81Y-90.17
X130.81Y-92.71
X130.81Y-95.25
X130.81Y-97.79
X151.13Y-49.53
X151.13Y-52.07
X151.13Y-54.61
X151.13Y-57.15
X151.13Y-59.69
X151.13Y-62.23
X151.13Y-64.77
X151.13Y-67.31
X151.13Y-69.85
X151.13Y-72.39
X151.13Y-74.93
X151.13Y-77.47
X151.13Y-80.01
X151.13Y-82.55
X151.13Y-85.09
X151.13Y-87.63
X151.13Y-90.17
X151.13Y-92.71
X151.13Y-95.25
X151.13Y-97.79
X158.75Y-59.69
X158.75Y-72.39
X167.64Y-66.675
X170.18Y-66.675
X172.72Y-66.675
X175.26Y-66.675
T2
X133.43Y-109.22
X135.93Y-109.22
X138.43Y-109.22
X140.93Y-109.22
X158.83Y-109.22
X161.33Y-109.22
X163.305Y-87.71
X163.305Y-90.21
X163.305Y-92.71
X163.305Y-95.21
X163.305Y-97.71
X163.83Y-109.22
X165.14Y-50.8
X165.14Y-53.34
X166.33Y-109.22
X168.83Y-109.22
X171.33Y-109.22
X172.72Y-50.84
X172.72Y-53.34
T3
X137.16Y-44.45
X137.16Y-121.92
X170.18Y-44.45
X170.18Y-121.92
T0
M30
