%TF.GenerationSoftware,KiCad,Pcbnew,7.0.9*%
%TF.CreationDate,2026-03-18T13:29:09+01:00*%
%TF.ProjectId,AQOR_Capteur,41514f52-5f43-4617-9074-6575722e6b69,rev?*%
%TF.SameCoordinates,Original*%
%TF.FileFunction,Legend,Bot*%
%TF.FilePolarity,Positive*%
%FSLAX46Y46*%
G04 Gerber Fmt 4.6, Leading zero omitted, Abs format (unit mm)*
G04 Created by KiCad (PCBNEW 7.0.9) date 2026-03-18 13:29:09*
%MOMM*%
%LPD*%
G01*
G04 APERTURE LIST*
%ADD10C,0.250000*%
G04 APERTURE END LIST*
D10*
X160141479Y-120111761D02*
X160236717Y-120207000D01*
X160236717Y-120207000D02*
X160522431Y-120302238D01*
X160522431Y-120302238D02*
X160712907Y-120302238D01*
X160712907Y-120302238D02*
X160998622Y-120207000D01*
X160998622Y-120207000D02*
X161189098Y-120016523D01*
X161189098Y-120016523D02*
X161284336Y-119826047D01*
X161284336Y-119826047D02*
X161379574Y-119445095D01*
X161379574Y-119445095D02*
X161379574Y-119159380D01*
X161379574Y-119159380D02*
X161284336Y-118778428D01*
X161284336Y-118778428D02*
X161189098Y-118587952D01*
X161189098Y-118587952D02*
X160998622Y-118397476D01*
X160998622Y-118397476D02*
X160712907Y-118302238D01*
X160712907Y-118302238D02*
X160522431Y-118302238D01*
X160522431Y-118302238D02*
X160236717Y-118397476D01*
X160236717Y-118397476D02*
X160141479Y-118492714D01*
X158427193Y-120302238D02*
X158427193Y-119254619D01*
X158427193Y-119254619D02*
X158522431Y-119064142D01*
X158522431Y-119064142D02*
X158712907Y-118968904D01*
X158712907Y-118968904D02*
X159093860Y-118968904D01*
X159093860Y-118968904D02*
X159284336Y-119064142D01*
X158427193Y-120207000D02*
X158617669Y-120302238D01*
X158617669Y-120302238D02*
X159093860Y-120302238D01*
X159093860Y-120302238D02*
X159284336Y-120207000D01*
X159284336Y-120207000D02*
X159379574Y-120016523D01*
X159379574Y-120016523D02*
X159379574Y-119826047D01*
X159379574Y-119826047D02*
X159284336Y-119635571D01*
X159284336Y-119635571D02*
X159093860Y-119540333D01*
X159093860Y-119540333D02*
X158617669Y-119540333D01*
X158617669Y-119540333D02*
X158427193Y-119445095D01*
X157474812Y-118968904D02*
X157474812Y-120968904D01*
X157474812Y-119064142D02*
X157284336Y-118968904D01*
X157284336Y-118968904D02*
X156903383Y-118968904D01*
X156903383Y-118968904D02*
X156712907Y-119064142D01*
X156712907Y-119064142D02*
X156617669Y-119159380D01*
X156617669Y-119159380D02*
X156522431Y-119349857D01*
X156522431Y-119349857D02*
X156522431Y-119921285D01*
X156522431Y-119921285D02*
X156617669Y-120111761D01*
X156617669Y-120111761D02*
X156712907Y-120207000D01*
X156712907Y-120207000D02*
X156903383Y-120302238D01*
X156903383Y-120302238D02*
X157284336Y-120302238D01*
X157284336Y-120302238D02*
X157474812Y-120207000D01*
X155951002Y-118968904D02*
X155189098Y-118968904D01*
X155665288Y-118302238D02*
X155665288Y-120016523D01*
X155665288Y-120016523D02*
X155570050Y-120207000D01*
X155570050Y-120207000D02*
X155379574Y-120302238D01*
X155379574Y-120302238D02*
X155189098Y-120302238D01*
X153760526Y-120207000D02*
X153951002Y-120302238D01*
X153951002Y-120302238D02*
X154331955Y-120302238D01*
X154331955Y-120302238D02*
X154522431Y-120207000D01*
X154522431Y-120207000D02*
X154617669Y-120016523D01*
X154617669Y-120016523D02*
X154617669Y-119254619D01*
X154617669Y-119254619D02*
X154522431Y-119064142D01*
X154522431Y-119064142D02*
X154331955Y-118968904D01*
X154331955Y-118968904D02*
X153951002Y-118968904D01*
X153951002Y-118968904D02*
X153760526Y-119064142D01*
X153760526Y-119064142D02*
X153665288Y-119254619D01*
X153665288Y-119254619D02*
X153665288Y-119445095D01*
X153665288Y-119445095D02*
X154617669Y-119635571D01*
X151951002Y-118968904D02*
X151951002Y-120302238D01*
X152808145Y-118968904D02*
X152808145Y-120016523D01*
X152808145Y-120016523D02*
X152712907Y-120207000D01*
X152712907Y-120207000D02*
X152522431Y-120302238D01*
X152522431Y-120302238D02*
X152236716Y-120302238D01*
X152236716Y-120302238D02*
X152046240Y-120207000D01*
X152046240Y-120207000D02*
X151951002Y-120111761D01*
X150998621Y-120302238D02*
X150998621Y-118968904D01*
X150998621Y-119349857D02*
X150903383Y-119159380D01*
X150903383Y-119159380D02*
X150808145Y-119064142D01*
X150808145Y-119064142D02*
X150617669Y-118968904D01*
X150617669Y-118968904D02*
X150427192Y-118968904D01*
X148331954Y-119730809D02*
X147379573Y-119730809D01*
X148522430Y-120302238D02*
X147855764Y-118302238D01*
X147855764Y-118302238D02*
X147189097Y-120302238D01*
X145189097Y-120492714D02*
X145379573Y-120397476D01*
X145379573Y-120397476D02*
X145570049Y-120207000D01*
X145570049Y-120207000D02*
X145855763Y-119921285D01*
X145855763Y-119921285D02*
X146046240Y-119826047D01*
X146046240Y-119826047D02*
X146236716Y-119826047D01*
X146141478Y-120302238D02*
X146331954Y-120207000D01*
X146331954Y-120207000D02*
X146522430Y-120016523D01*
X146522430Y-120016523D02*
X146617668Y-119635571D01*
X146617668Y-119635571D02*
X146617668Y-118968904D01*
X146617668Y-118968904D02*
X146522430Y-118587952D01*
X146522430Y-118587952D02*
X146331954Y-118397476D01*
X146331954Y-118397476D02*
X146141478Y-118302238D01*
X146141478Y-118302238D02*
X145760525Y-118302238D01*
X145760525Y-118302238D02*
X145570049Y-118397476D01*
X145570049Y-118397476D02*
X145379573Y-118587952D01*
X145379573Y-118587952D02*
X145284335Y-118968904D01*
X145284335Y-118968904D02*
X145284335Y-119635571D01*
X145284335Y-119635571D02*
X145379573Y-120016523D01*
X145379573Y-120016523D02*
X145570049Y-120207000D01*
X145570049Y-120207000D02*
X145760525Y-120302238D01*
X145760525Y-120302238D02*
X146141478Y-120302238D01*
X144046240Y-118302238D02*
X143665287Y-118302238D01*
X143665287Y-118302238D02*
X143474811Y-118397476D01*
X143474811Y-118397476D02*
X143284335Y-118587952D01*
X143284335Y-118587952D02*
X143189097Y-118968904D01*
X143189097Y-118968904D02*
X143189097Y-119635571D01*
X143189097Y-119635571D02*
X143284335Y-120016523D01*
X143284335Y-120016523D02*
X143474811Y-120207000D01*
X143474811Y-120207000D02*
X143665287Y-120302238D01*
X143665287Y-120302238D02*
X144046240Y-120302238D01*
X144046240Y-120302238D02*
X144236716Y-120207000D01*
X144236716Y-120207000D02*
X144427192Y-120016523D01*
X144427192Y-120016523D02*
X144522430Y-119635571D01*
X144522430Y-119635571D02*
X144522430Y-118968904D01*
X144522430Y-118968904D02*
X144427192Y-118587952D01*
X144427192Y-118587952D02*
X144236716Y-118397476D01*
X144236716Y-118397476D02*
X144046240Y-118302238D01*
X141189097Y-120302238D02*
X141855764Y-119349857D01*
X142331954Y-120302238D02*
X142331954Y-118302238D01*
X142331954Y-118302238D02*
X141570049Y-118302238D01*
X141570049Y-118302238D02*
X141379573Y-118397476D01*
X141379573Y-118397476D02*
X141284335Y-118492714D01*
X141284335Y-118492714D02*
X141189097Y-118683190D01*
X141189097Y-118683190D02*
X141189097Y-118968904D01*
X141189097Y-118968904D02*
X141284335Y-119159380D01*
X141284335Y-119159380D02*
X141379573Y-119254619D01*
X141379573Y-119254619D02*
X141570049Y-119349857D01*
X141570049Y-119349857D02*
X142331954Y-119349857D01*
X160141479Y-123331761D02*
X160236717Y-123427000D01*
X160236717Y-123427000D02*
X160522431Y-123522238D01*
X160522431Y-123522238D02*
X160712907Y-123522238D01*
X160712907Y-123522238D02*
X160998622Y-123427000D01*
X160998622Y-123427000D02*
X161189098Y-123236523D01*
X161189098Y-123236523D02*
X161284336Y-123046047D01*
X161284336Y-123046047D02*
X161379574Y-122665095D01*
X161379574Y-122665095D02*
X161379574Y-122379380D01*
X161379574Y-122379380D02*
X161284336Y-121998428D01*
X161284336Y-121998428D02*
X161189098Y-121807952D01*
X161189098Y-121807952D02*
X160998622Y-121617476D01*
X160998622Y-121617476D02*
X160712907Y-121522238D01*
X160712907Y-121522238D02*
X160522431Y-121522238D01*
X160522431Y-121522238D02*
X160236717Y-121617476D01*
X160236717Y-121617476D02*
X160141479Y-121712714D01*
X159379574Y-123427000D02*
X159093860Y-123522238D01*
X159093860Y-123522238D02*
X158617669Y-123522238D01*
X158617669Y-123522238D02*
X158427193Y-123427000D01*
X158427193Y-123427000D02*
X158331955Y-123331761D01*
X158331955Y-123331761D02*
X158236717Y-123141285D01*
X158236717Y-123141285D02*
X158236717Y-122950809D01*
X158236717Y-122950809D02*
X158331955Y-122760333D01*
X158331955Y-122760333D02*
X158427193Y-122665095D01*
X158427193Y-122665095D02*
X158617669Y-122569857D01*
X158617669Y-122569857D02*
X158998622Y-122474619D01*
X158998622Y-122474619D02*
X159189098Y-122379380D01*
X159189098Y-122379380D02*
X159284336Y-122284142D01*
X159284336Y-122284142D02*
X159379574Y-122093666D01*
X159379574Y-122093666D02*
X159379574Y-121903190D01*
X159379574Y-121903190D02*
X159284336Y-121712714D01*
X159284336Y-121712714D02*
X159189098Y-121617476D01*
X159189098Y-121617476D02*
X158998622Y-121522238D01*
X158998622Y-121522238D02*
X158522431Y-121522238D01*
X158522431Y-121522238D02*
X158236717Y-121617476D01*
X156236717Y-123331761D02*
X156331955Y-123427000D01*
X156331955Y-123427000D02*
X156617669Y-123522238D01*
X156617669Y-123522238D02*
X156808145Y-123522238D01*
X156808145Y-123522238D02*
X157093860Y-123427000D01*
X157093860Y-123427000D02*
X157284336Y-123236523D01*
X157284336Y-123236523D02*
X157379574Y-123046047D01*
X157379574Y-123046047D02*
X157474812Y-122665095D01*
X157474812Y-122665095D02*
X157474812Y-122379380D01*
X157474812Y-122379380D02*
X157379574Y-121998428D01*
X157379574Y-121998428D02*
X157284336Y-121807952D01*
X157284336Y-121807952D02*
X157093860Y-121617476D01*
X157093860Y-121617476D02*
X156808145Y-121522238D01*
X156808145Y-121522238D02*
X156617669Y-121522238D01*
X156617669Y-121522238D02*
X156331955Y-121617476D01*
X156331955Y-121617476D02*
X156236717Y-121712714D01*
X153951002Y-122950809D02*
X152998621Y-122950809D01*
X154141478Y-123522238D02*
X153474812Y-121522238D01*
X153474812Y-121522238D02*
X152808145Y-123522238D01*
X152331954Y-122188904D02*
X151855764Y-123522238D01*
X151379573Y-122188904D02*
X151855764Y-123522238D01*
X151855764Y-123522238D02*
X152046240Y-123998428D01*
X152046240Y-123998428D02*
X152141478Y-124093666D01*
X152141478Y-124093666D02*
X152331954Y-124188904D01*
X150903382Y-122188904D02*
X150141478Y-122188904D01*
X150617668Y-121522238D02*
X150617668Y-123236523D01*
X150617668Y-123236523D02*
X150522430Y-123427000D01*
X150522430Y-123427000D02*
X150331954Y-123522238D01*
X150331954Y-123522238D02*
X150141478Y-123522238D01*
X149474811Y-123522238D02*
X149474811Y-122188904D01*
X149474811Y-122569857D02*
X149379573Y-122379380D01*
X149379573Y-122379380D02*
X149284335Y-122284142D01*
X149284335Y-122284142D02*
X149093859Y-122188904D01*
X149093859Y-122188904D02*
X148903382Y-122188904D01*
X147474811Y-123427000D02*
X147665287Y-123522238D01*
X147665287Y-123522238D02*
X148046240Y-123522238D01*
X148046240Y-123522238D02*
X148236716Y-123427000D01*
X148236716Y-123427000D02*
X148331954Y-123236523D01*
X148331954Y-123236523D02*
X148331954Y-122474619D01*
X148331954Y-122474619D02*
X148236716Y-122284142D01*
X148236716Y-122284142D02*
X148046240Y-122188904D01*
X148046240Y-122188904D02*
X147665287Y-122188904D01*
X147665287Y-122188904D02*
X147474811Y-122284142D01*
X147474811Y-122284142D02*
X147379573Y-122474619D01*
X147379573Y-122474619D02*
X147379573Y-122665095D01*
X147379573Y-122665095D02*
X148331954Y-122855571D01*
X147665287Y-121427000D02*
X147951002Y-121712714D01*
X161570050Y-124742238D02*
X160903384Y-126742238D01*
X160903384Y-126742238D02*
X160236717Y-124742238D01*
X158522431Y-126742238D02*
X159665288Y-126742238D01*
X159093860Y-126742238D02*
X159093860Y-124742238D01*
X159093860Y-124742238D02*
X159284336Y-125027952D01*
X159284336Y-125027952D02*
X159474812Y-125218428D01*
X159474812Y-125218428D02*
X159665288Y-125313666D01*
X157665288Y-126551761D02*
X157570050Y-126647000D01*
X157570050Y-126647000D02*
X157665288Y-126742238D01*
X157665288Y-126742238D02*
X157760526Y-126647000D01*
X157760526Y-126647000D02*
X157665288Y-126551761D01*
X157665288Y-126551761D02*
X157665288Y-126742238D01*
X155665288Y-126742238D02*
X156808145Y-126742238D01*
X156236717Y-126742238D02*
X156236717Y-124742238D01*
X156236717Y-124742238D02*
X156427193Y-125027952D01*
X156427193Y-125027952D02*
X156617669Y-125218428D01*
X156617669Y-125218428D02*
X156808145Y-125313666D01*
X154808145Y-125980333D02*
X153284336Y-125980333D01*
X152427193Y-124932714D02*
X152331955Y-124837476D01*
X152331955Y-124837476D02*
X152141479Y-124742238D01*
X152141479Y-124742238D02*
X151665288Y-124742238D01*
X151665288Y-124742238D02*
X151474812Y-124837476D01*
X151474812Y-124837476D02*
X151379574Y-124932714D01*
X151379574Y-124932714D02*
X151284336Y-125123190D01*
X151284336Y-125123190D02*
X151284336Y-125313666D01*
X151284336Y-125313666D02*
X151379574Y-125599380D01*
X151379574Y-125599380D02*
X152522431Y-126742238D01*
X152522431Y-126742238D02*
X151284336Y-126742238D01*
X150046241Y-124742238D02*
X149855764Y-124742238D01*
X149855764Y-124742238D02*
X149665288Y-124837476D01*
X149665288Y-124837476D02*
X149570050Y-124932714D01*
X149570050Y-124932714D02*
X149474812Y-125123190D01*
X149474812Y-125123190D02*
X149379574Y-125504142D01*
X149379574Y-125504142D02*
X149379574Y-125980333D01*
X149379574Y-125980333D02*
X149474812Y-126361285D01*
X149474812Y-126361285D02*
X149570050Y-126551761D01*
X149570050Y-126551761D02*
X149665288Y-126647000D01*
X149665288Y-126647000D02*
X149855764Y-126742238D01*
X149855764Y-126742238D02*
X150046241Y-126742238D01*
X150046241Y-126742238D02*
X150236717Y-126647000D01*
X150236717Y-126647000D02*
X150331955Y-126551761D01*
X150331955Y-126551761D02*
X150427193Y-126361285D01*
X150427193Y-126361285D02*
X150522431Y-125980333D01*
X150522431Y-125980333D02*
X150522431Y-125504142D01*
X150522431Y-125504142D02*
X150427193Y-125123190D01*
X150427193Y-125123190D02*
X150331955Y-124932714D01*
X150331955Y-124932714D02*
X150236717Y-124837476D01*
X150236717Y-124837476D02*
X150046241Y-124742238D01*
X148617669Y-124932714D02*
X148522431Y-124837476D01*
X148522431Y-124837476D02*
X148331955Y-124742238D01*
X148331955Y-124742238D02*
X147855764Y-124742238D01*
X147855764Y-124742238D02*
X147665288Y-124837476D01*
X147665288Y-124837476D02*
X147570050Y-124932714D01*
X147570050Y-124932714D02*
X147474812Y-125123190D01*
X147474812Y-125123190D02*
X147474812Y-125313666D01*
X147474812Y-125313666D02*
X147570050Y-125599380D01*
X147570050Y-125599380D02*
X148712907Y-126742238D01*
X148712907Y-126742238D02*
X147474812Y-126742238D01*
X145665288Y-124742238D02*
X146617669Y-124742238D01*
X146617669Y-124742238D02*
X146712907Y-125694619D01*
X146712907Y-125694619D02*
X146617669Y-125599380D01*
X146617669Y-125599380D02*
X146427193Y-125504142D01*
X146427193Y-125504142D02*
X145951002Y-125504142D01*
X145951002Y-125504142D02*
X145760526Y-125599380D01*
X145760526Y-125599380D02*
X145665288Y-125694619D01*
X145665288Y-125694619D02*
X145570050Y-125885095D01*
X145570050Y-125885095D02*
X145570050Y-126361285D01*
X145570050Y-126361285D02*
X145665288Y-126551761D01*
X145665288Y-126551761D02*
X145760526Y-126647000D01*
X145760526Y-126647000D02*
X145951002Y-126742238D01*
X145951002Y-126742238D02*
X146427193Y-126742238D01*
X146427193Y-126742238D02*
X146617669Y-126647000D01*
X146617669Y-126647000D02*
X146712907Y-126551761D01*
M02*
