%TF.GenerationSoftware,KiCad,Pcbnew,7.0.9*%
%TF.CreationDate,2026-03-18T13:29:09+01:00*%
%TF.ProjectId,AQOR_Capteur,41514f52-5f43-4617-9074-6575722e6b69,rev?*%
%TF.SameCoordinates,Original*%
%TF.FileFunction,Profile,NP*%
%FSLAX46Y46*%
G04 Gerber Fmt 4.6, Leading zero omitted, Abs format (unit mm)*
G04 Created by KiCad (PCBNEW 7.0.9) date 2026-03-18 13:29:09*
%MOMM*%
%LPD*%
G01*
G04 APERTURE LIST*
%ADD10C,0.500000*%
%TA.AperFunction,Profile*%
%ADD11C,0.500000*%
%TD*%
G04 APERTURE END LIST*
D10*
X129020749Y-128017101D02*
X128514423Y-127948159D01*
X128048505Y-127748465D01*
X127681738Y-127462465D01*
X127681738Y-127462465D02*
X127372461Y-127055689D01*
X127184212Y-126585031D01*
X127127102Y-126123454D01*
D11*
X129020749Y-41910000D02*
X178319251Y-41910000D01*
D10*
X179658262Y-127462465D02*
X179251486Y-127771741D01*
X178780828Y-127959990D01*
X178319251Y-128017101D01*
D11*
X180212898Y-43803647D02*
X180212898Y-126123454D01*
D10*
X127127102Y-43803647D02*
X127196043Y-43297321D01*
X127395737Y-42831403D01*
X127681738Y-42464636D01*
X127681738Y-42464636D02*
X128088513Y-42155359D01*
X128559171Y-41967110D01*
X129020749Y-41910000D01*
D11*
X178319251Y-128017101D02*
X129020749Y-128017101D01*
D10*
X179658262Y-42464636D02*
X179967538Y-42871411D01*
X180155787Y-43342069D01*
X180212898Y-43803647D01*
X178319251Y-41910000D02*
X178825576Y-41978941D01*
X179291494Y-42178635D01*
X179658262Y-42464636D01*
X180212898Y-126123454D02*
X180143956Y-126629779D01*
X179944262Y-127095697D01*
X179658262Y-127462465D01*
D11*
X127127102Y-126123454D02*
X127127102Y-43803647D01*
M02*
