<?xml version="1.0" standalone="no"?>
 <!DOCTYPE svg PUBLIC "-//W3C//DTD SVG 1.1//EN" 
 "http://www.w3.org/Graphics/SVG/1.1/DTD/svg11.dtd"> 
<svg
  xmlns:svg="http://www.w3.org/2000/svg"
  xmlns="http://www.w3.org/2000/svg"
  xmlns:xlink="http://www.w3.org/1999/xlink"
  version="1.1"
  width="297.0022mm" height="210.0072mm" viewBox="0.0000 0.0000 297.0022 210.0072">
<title>SVG Image created as AQOR_Capteur-drl_map.svg date 2025/03/10 12:38:52 </title>
  <desc>Image generated by PCBNEW </desc>
<g style="fill:#000000; fill-opacity:1.0000;stroke:#000000; stroke-opacity:1.0000;
stroke-linecap:round; stroke-linejoin:round;"
 transform="translate(0 0) scale(1 1)">
</g>
<g style="fill:#000000; fill-opacity:0.0; 
stroke:#000000; stroke-width:0.0000; stroke-opacity:1; 
stroke-linecap:round; stroke-linejoin:round;">
</g>
<g style="fill:#000000; fill-opacity:0.0; 
stroke:#000000; stroke-width:0.6697; stroke-opacity:1; 
stroke-linecap:round; stroke-linejoin:round;">
<path d="M115.4851,120.6695 C114.8124,120.6695 114.1673,120.4022 113.6916,119.9266" />
<path d="M113.6916,119.9266 C113.2159,119.4509 112.9487,118.8057 112.9487,118.1331" />
<path d="M115.4851 5.3349
L181.5171 5.3349
" />
<path d="M183.3106,119.9266 C182.8349,120.4022 182.1898,120.6695 181.5171,120.6695" />
<path d="M184.0535 7.8713
L184.0535 118.1331
" />
<path d="M112.9487,7.8713 C112.9487,7.1986 113.2159,6.5534 113.6916,6.0778" />
<path d="M113.6916,6.0778 C114.1673,5.6021 114.8124,5.3349 115.4851,5.3349" />
<path d="M181.5171 120.6695
L115.4851 120.6695
" />
<path d="M183.3106,6.0778 C183.7863,6.5534 184.0535,7.1986 184.0535,7.8713" />
<path d="M181.5171,5.3349 C182.1898,5.3349 182.8349,5.6021 183.3106,6.0778" />
<path d="M184.0535,118.1331 C184.0535,118.8057 183.7863,119.4509 183.3106,119.9266" />
<path d="M112.9487 118.1331
L112.9487 7.8713
" />
</g>
<g style="fill:#000000; fill-opacity:0.0; 
stroke:#000000; stroke-width:0.2679; stroke-opacity:1; 
stroke-linecap:round; stroke-linejoin:round;">
</g>
<g style="fill:#000000; fill-opacity:0.0; 
stroke:#000000; stroke-width:0.1339; stroke-opacity:1; 
stroke-linecap:round; stroke-linejoin:round;">
<path d="M117.3459 15.0056
L118.4175 16.0771
" />
<path d="M118.4175 15.0056
L117.3459 16.0771
" />
<path d="M117.3459 18.4077
L118.4175 19.4793
" />
<path d="M118.4175 18.4077
L117.3459 19.4793
" />
<path d="M117.3459 21.8099
L118.4175 22.8814
" />
<path d="M118.4175 21.8099
L117.3459 22.8814
" />
<path d="M117.3459 25.2120
L118.4175 26.2836
" />
<path d="M118.4175 25.2120
L117.3459 26.2836
" />
<path d="M117.3459 28.6142
L118.4175 29.6857
" />
<path d="M118.4175 28.6142
L117.3459 29.6857
" />
<path d="M117.3459 32.0163
L118.4175 33.0879
" />
<path d="M118.4175 32.0163
L117.3459 33.0879
" />
<path d="M117.3459 35.4185
L118.4175 36.4900
" />
<path d="M118.4175 35.4185
L117.3459 36.4900
" />
<path d="M117.3459 38.8207
L118.4175 39.8922
" />
<path d="M118.4175 38.8207
L117.3459 39.8922
" />
<path d="M117.3459 42.2228
L118.4175 43.2944
" />
<path d="M118.4175 42.2228
L117.3459 43.2944
" />
<path d="M117.3459 45.6250
L118.4175 46.6965
" />
<path d="M118.4175 45.6250
L117.3459 46.6965
" />
<path d="M117.3459 49.0271
L118.4175 50.0987
" />
<path d="M118.4175 49.0271
L117.3459 50.0987
" />
<path d="M117.3459 52.4293
L118.4175 53.5008
" />
<path d="M118.4175 52.4293
L117.3459 53.5008
" />
<path d="M117.3459 55.8314
L118.4175 56.9030
" />
<path d="M118.4175 55.8314
L117.3459 56.9030
" />
<path d="M117.3459 59.2336
L118.4175 60.3051
" />
<path d="M118.4175 59.2336
L117.3459 60.3051
" />
<path d="M117.3459 62.6358
L118.4175 63.7073
" />
<path d="M118.4175 62.6358
L117.3459 63.7073
" />
<path d="M117.3459 66.0379
L118.4175 67.1095
" />
<path d="M118.4175 66.0379
L117.3459 67.1095
" />
<path d="M117.3459 69.4401
L118.4175 70.5116
" />
<path d="M118.4175 69.4401
L117.3459 70.5116
" />
<path d="M117.3459 72.8422
L118.4175 73.9138
" />
<path d="M118.4175 72.8422
L117.3459 73.9138
" />
<path d="M117.3459 76.2444
L118.4175 77.3159
" />
<path d="M118.4175 76.2444
L117.3459 77.3159
" />
<path d="M117.3459 79.6465
L118.4175 80.7181
" />
<path d="M118.4175 79.6465
L117.3459 80.7181
" />
<path d="M144.5632 15.0056
L145.6347 16.0771
" />
<path d="M145.6347 15.0056
L144.5632 16.0771
" />
<path d="M144.5632 18.4077
L145.6347 19.4793
" />
<path d="M145.6347 18.4077
L144.5632 19.4793
" />
<path d="M144.5632 21.8099
L145.6347 22.8814
" />
<path d="M145.6347 21.8099
L144.5632 22.8814
" />
<path d="M144.5632 25.2120
L145.6347 26.2836
" />
<path d="M145.6347 25.2120
L144.5632 26.2836
" />
<path d="M144.5632 28.6142
L145.6347 29.6857
" />
<path d="M145.6347 28.6142
L144.5632 29.6857
" />
<path d="M144.5632 32.0163
L145.6347 33.0879
" />
<path d="M145.6347 32.0163
L144.5632 33.0879
" />
<path d="M144.5632 35.4185
L145.6347 36.4900
" />
<path d="M145.6347 35.4185
L144.5632 36.4900
" />
<path d="M144.5632 38.8207
L145.6347 39.8922
" />
<path d="M145.6347 38.8207
L144.5632 39.8922
" />
<path d="M144.5632 42.2228
L145.6347 43.2944
" />
<path d="M145.6347 42.2228
L144.5632 43.2944
" />
<path d="M144.5632 45.6250
L145.6347 46.6965
" />
<path d="M145.6347 45.6250
L144.5632 46.6965
" />
<path d="M144.5632 49.0271
L145.6347 50.0987
" />
<path d="M145.6347 49.0271
L144.5632 50.0987
" />
<path d="M144.5632 52.4293
L145.6347 53.5008
" />
<path d="M145.6347 52.4293
L144.5632 53.5008
" />
<path d="M144.5632 55.8314
L145.6347 56.9030
" />
<path d="M145.6347 55.8314
L144.5632 56.9030
" />
<path d="M144.5632 59.2336
L145.6347 60.3051
" />
<path d="M145.6347 59.2336
L144.5632 60.3051
" />
<path d="M144.5632 62.6358
L145.6347 63.7073
" />
<path d="M145.6347 62.6358
L144.5632 63.7073
" />
<path d="M144.5632 66.0379
L145.6347 67.1095
" />
<path d="M145.6347 66.0379
L144.5632 67.1095
" />
<path d="M144.5632 69.4401
L145.6347 70.5116
" />
<path d="M145.6347 69.4401
L144.5632 70.5116
" />
<path d="M144.5632 72.8422
L145.6347 73.9138
" />
<path d="M145.6347 72.8422
L144.5632 73.9138
" />
<path d="M144.5632 76.2444
L145.6347 77.3159
" />
<path d="M145.6347 76.2444
L144.5632 77.3159
" />
<path d="M144.5632 79.6465
L145.6347 80.7181
" />
<path d="M145.6347 79.6465
L144.5632 80.7181
" />
<path d="M154.7696 28.6142
L155.8412 29.6857
" />
<path d="M155.8412 28.6142
L154.7696 29.6857
" />
<path d="M154.7696 45.6250
L155.8412 46.6965
" />
<path d="M155.8412 45.6250
L154.7696 46.6965
" />
<path d="M166.6772 37.9701
L167.7487 39.0417
" />
<path d="M167.7487 37.9701
L166.6772 39.0417
" />
<path d="M170.0793 37.9701
L171.1509 39.0417
" />
<path d="M171.1509 37.9701
L170.0793 39.0417
" />
<path d="M173.4815 37.9701
L174.5531 39.0417
" />
<path d="M174.5531 37.9701
L173.4815 39.0417
" />
<path d="M176.8837 37.9701
L177.9552 39.0417
" />
<path d="M177.9552 37.9701
L176.8837 39.0417
" />
<circle cx="121.3910" cy="95.4920" r="0.6697" /> 
<circle cx="124.7396" cy="95.4920" r="0.6697" /> 
<circle cx="128.0882" cy="95.4920" r="0.6697" /> 
<circle cx="131.4367" cy="95.4920" r="0.6697" /> 
<circle cx="155.4126" cy="95.4920" r="0.6697" /> 
<circle cx="158.7611" cy="95.4920" r="0.6697" /> 
<circle cx="161.4065" cy="66.6808" r="0.6697" /> 
<circle cx="161.4065" cy="70.0294" r="0.6697" /> 
<circle cx="161.4065" cy="73.3780" r="0.6697" /> 
<circle cx="161.4065" cy="76.7266" r="0.6697" /> 
<circle cx="161.4065" cy="80.0752" r="0.6697" /> 
<circle cx="162.1097" cy="95.4920" r="0.6697" /> 
<circle cx="163.8644" cy="17.2424" r="0.6697" /> 
<circle cx="163.8644" cy="20.6446" r="0.6697" /> 
<circle cx="165.4583" cy="95.4920" r="0.6697" /> 
<circle cx="168.8069" cy="95.4920" r="0.6697" /> 
<circle cx="172.1555" cy="95.4920" r="0.6697" /> 
<circle cx="174.0173" cy="17.2960" r="0.6697" /> 
<circle cx="174.0173" cy="20.6446" r="0.6697" /> 
</g>
<g style="fill:#000000; fill-opacity:0.0; 
stroke:#000000; stroke-width:0.3081; stroke-opacity:1; 
stroke-linecap:round; stroke-linejoin:round;">
<path d="M126.3871 7.1967
L126.3871 10.2774
" />
<path d="M124.8467 8.7370
L127.9274 8.7370
" />
<path d="M126.3871 110.9625
L126.3871 114.0432
" />
<path d="M124.8467 112.5028
L127.9274 112.5028
" />
<path d="M170.6151 7.1967
L170.6151 10.2774
" />
<path d="M169.0748 8.7370
L172.1555 8.7370
" />
<path d="M170.6151 110.9625
L170.6151 114.0432
" />
<path d="M169.0748 112.5028
L172.1555 112.5028
" />
</g>
<g style="fill:#000000; fill-opacity:0.0; 
stroke:#000000; stroke-width:0.2679; stroke-opacity:1; 
stroke-linecap:round; stroke-linejoin:round;">
</g>
<g style="fill:#000000; fill-opacity:0.0; 
stroke:#000000; stroke-width:0.2000; stroke-opacity:1; 
stroke-linecap:round; stroke-linejoin:round;">
<text x="114.6138" y="124.2043"
textLength="14.8667" font-size="2.6667" lengthAdjust="spacingAndGlyphs"
text-anchor="start" opacity="0">Drill Map:</text>
<g class="stroked-text"><desc>Drill Map:</desc>
<path d="M115.2216 124.1192
L115.2216 122.1192
" />
<path d="M115.2216 122.1192
L115.6978 122.1192
" />
<path d="M115.6978 122.1192
L115.9835 122.2144
" />
<path d="M115.9835 122.2144
L116.1740 122.4049
" />
<path d="M116.1740 122.4049
L116.2692 122.5953
" />
<path d="M116.2692 122.5953
L116.3645 122.9763
" />
<path d="M116.3645 122.9763
L116.3645 123.2620
" />
<path d="M116.3645 123.2620
L116.2692 123.6430
" />
<path d="M116.2692 123.6430
L116.1740 123.8334
" />
<path d="M116.1740 123.8334
L115.9835 124.0239
" />
<path d="M115.9835 124.0239
L115.6978 124.1192
" />
<path d="M115.6978 124.1192
L115.2216 124.1192
" />
<path d="M117.2216 124.1192
L117.2216 122.7858
" />
<path d="M117.2216 123.1668
L117.3168 122.9763
" />
<path d="M117.3168 122.9763
L117.4121 122.8811
" />
<path d="M117.4121 122.8811
L117.6026 122.7858
" />
<path d="M117.6026 122.7858
L117.7930 122.7858
" />
<path d="M118.4597 124.1192
L118.4597 122.7858
" />
<path d="M118.4597 122.1192
L118.3645 122.2144
" />
<path d="M118.3645 122.2144
L118.4597 122.3096
" />
<path d="M118.4597 122.3096
L118.5549 122.2144
" />
<path d="M118.5549 122.2144
L118.4597 122.1192
" />
<path d="M118.4597 122.1192
L118.4597 122.3096
" />
<path d="M119.6978 124.1192
L119.5073 124.0239
" />
<path d="M119.5073 124.0239
L119.4121 123.8334
" />
<path d="M119.4121 123.8334
L119.4121 122.1192
" />
<path d="M120.7454 124.1192
L120.5549 124.0239
" />
<path d="M120.5549 124.0239
L120.4597 123.8334
" />
<path d="M120.4597 123.8334
L120.4597 122.1192
" />
<path d="M123.0311 124.1192
L123.0311 122.1192
" />
<path d="M123.0311 122.1192
L123.6978 123.5477
" />
<path d="M123.6978 123.5477
L124.3645 122.1192
" />
<path d="M124.3645 122.1192
L124.3645 124.1192
" />
<path d="M126.1740 124.1192
L126.1740 123.0715
" />
<path d="M126.1740 123.0715
L126.0787 122.8811
" />
<path d="M126.0787 122.8811
L125.8883 122.7858
" />
<path d="M125.8883 122.7858
L125.5073 122.7858
" />
<path d="M125.5073 122.7858
L125.3168 122.8811
" />
<path d="M126.1740 124.0239
L125.9835 124.1192
" />
<path d="M125.9835 124.1192
L125.5073 124.1192
" />
<path d="M125.5073 124.1192
L125.3168 124.0239
" />
<path d="M125.3168 124.0239
L125.2216 123.8334
" />
<path d="M125.2216 123.8334
L125.2216 123.6430
" />
<path d="M125.2216 123.6430
L125.3168 123.4525
" />
<path d="M125.3168 123.4525
L125.5073 123.3573
" />
<path d="M125.5073 123.3573
L125.9835 123.3573
" />
<path d="M125.9835 123.3573
L126.1740 123.2620
" />
<path d="M127.1264 122.7858
L127.1264 124.7858
" />
<path d="M127.1264 122.8811
L127.3168 122.7858
" />
<path d="M127.3168 122.7858
L127.6978 122.7858
" />
<path d="M127.6978 122.7858
L127.8883 122.8811
" />
<path d="M127.8883 122.8811
L127.9835 122.9763
" />
<path d="M127.9835 122.9763
L128.0787 123.1668
" />
<path d="M128.0787 123.1668
L128.0787 123.7382
" />
<path d="M128.0787 123.7382
L127.9835 123.9287
" />
<path d="M127.9835 123.9287
L127.8883 124.0239
" />
<path d="M127.8883 124.0239
L127.6978 124.1192
" />
<path d="M127.6978 124.1192
L127.3168 124.1192
" />
<path d="M127.3168 124.1192
L127.1264 124.0239
" />
<path d="M128.9359 123.9287
L129.0311 124.0239
" />
<path d="M129.0311 124.0239
L128.9359 124.1192
" />
<path d="M128.9359 124.1192
L128.8406 124.0239
" />
<path d="M128.8406 124.0239
L128.9359 123.9287
" />
<path d="M128.9359 123.9287
L128.9359 124.1192
" />
<path d="M128.9359 122.8811
L129.0311 122.9763
" />
<path d="M129.0311 122.9763
L128.9359 123.0715
" />
<path d="M128.9359 123.0715
L128.8406 122.9763
" />
<path d="M128.8406 122.9763
L128.9359 122.8811
" />
<path d="M128.9359 122.8811
L128.9359 123.0715
" />
</g></g>
<g style="fill:#000000; fill-opacity:0.0; 
stroke:#000000; stroke-width:0.1339; stroke-opacity:1; 
stroke-linecap:round; stroke-linejoin:round;">
<path d="M111.5423 126.8685
L112.6138 127.9401
" />
<path d="M112.6138 126.8685
L111.5423 127.9401
" />
</g>
<g style="fill:#000000; fill-opacity:0.0; 
stroke:#000000; stroke-width:0.2679; stroke-opacity:1; 
stroke-linecap:round; stroke-linejoin:round;">
</g>
<g style="fill:#000000; fill-opacity:0.0; 
stroke:#000000; stroke-width:0.2000; stroke-opacity:1; 
stroke-linecap:round; stroke-linejoin:round;">
<text x="114.6138" y="128.4043"
textLength="48.7714" font-size="2.6667" lengthAdjust="spacingAndGlyphs"
text-anchor="start" opacity="0">0.800mm / 0.0315" (46 holes)</text>
<g class="stroked-text"><desc>0.800mm / 0.0315" (46 holes)</desc>
<path d="M115.6026 126.3192
L115.7930 126.3192
" />
<path d="M115.7930 126.3192
L115.9835 126.4144
" />
<path d="M115.9835 126.4144
L116.0787 126.5096
" />
<path d="M116.0787 126.5096
L116.1740 126.7001
" />
<path d="M116.1740 126.7001
L116.2692 127.0811
" />
<path d="M116.2692 127.0811
L116.2692 127.5573
" />
<path d="M116.2692 127.5573
L116.1740 127.9382
" />
<path d="M116.1740 127.9382
L116.0787 128.1287
" />
<path d="M116.0787 128.1287
L115.9835 128.2239
" />
<path d="M115.9835 128.2239
L115.7930 128.3192
" />
<path d="M115.7930 128.3192
L115.6026 128.3192
" />
<path d="M115.6026 128.3192
L115.4121 128.2239
" />
<path d="M115.4121 128.2239
L115.3168 128.1287
" />
<path d="M115.3168 128.1287
L115.2216 127.9382
" />
<path d="M115.2216 127.9382
L115.1264 127.5573
" />
<path d="M115.1264 127.5573
L115.1264 127.0811
" />
<path d="M115.1264 127.0811
L115.2216 126.7001
" />
<path d="M115.2216 126.7001
L115.3168 126.5096
" />
<path d="M115.3168 126.5096
L115.4121 126.4144
" />
<path d="M115.4121 126.4144
L115.6026 126.3192
" />
<path d="M117.1264 128.1287
L117.2216 128.2239
" />
<path d="M117.2216 128.2239
L117.1264 128.3192
" />
<path d="M117.1264 128.3192
L117.0311 128.2239
" />
<path d="M117.0311 128.2239
L117.1264 128.1287
" />
<path d="M117.1264 128.1287
L117.1264 128.3192
" />
<path d="M118.3645 127.1763
L118.1740 127.0811
" />
<path d="M118.1740 127.0811
L118.0787 126.9858
" />
<path d="M118.0787 126.9858
L117.9835 126.7953
" />
<path d="M117.9835 126.7953
L117.9835 126.7001
" />
<path d="M117.9835 126.7001
L118.0787 126.5096
" />
<path d="M118.0787 126.5096
L118.1740 126.4144
" />
<path d="M118.1740 126.4144
L118.3645 126.3192
" />
<path d="M118.3645 126.3192
L118.7454 126.3192
" />
<path d="M118.7454 126.3192
L118.9359 126.4144
" />
<path d="M118.9359 126.4144
L119.0311 126.5096
" />
<path d="M119.0311 126.5096
L119.1264 126.7001
" />
<path d="M119.1264 126.7001
L119.1264 126.7953
" />
<path d="M119.1264 126.7953
L119.0311 126.9858
" />
<path d="M119.0311 126.9858
L118.9359 127.0811
" />
<path d="M118.9359 127.0811
L118.7454 127.1763
" />
<path d="M118.7454 127.1763
L118.3645 127.1763
" />
<path d="M118.3645 127.1763
L118.1740 127.2715
" />
<path d="M118.1740 127.2715
L118.0787 127.3668
" />
<path d="M118.0787 127.3668
L117.9835 127.5573
" />
<path d="M117.9835 127.5573
L117.9835 127.9382
" />
<path d="M117.9835 127.9382
L118.0787 128.1287
" />
<path d="M118.0787 128.1287
L118.1740 128.2239
" />
<path d="M118.1740 128.2239
L118.3645 128.3192
" />
<path d="M118.3645 128.3192
L118.7454 128.3192
" />
<path d="M118.7454 128.3192
L118.9359 128.2239
" />
<path d="M118.9359 128.2239
L119.0311 128.1287
" />
<path d="M119.0311 128.1287
L119.1264 127.9382
" />
<path d="M119.1264 127.9382
L119.1264 127.5573
" />
<path d="M119.1264 127.5573
L119.0311 127.3668
" />
<path d="M119.0311 127.3668
L118.9359 127.2715
" />
<path d="M118.9359 127.2715
L118.7454 127.1763
" />
<path d="M120.3645 126.3192
L120.5549 126.3192
" />
<path d="M120.5549 126.3192
L120.7454 126.4144
" />
<path d="M120.7454 126.4144
L120.8406 126.5096
" />
<path d="M120.8406 126.5096
L120.9359 126.7001
" />
<path d="M120.9359 126.7001
L121.0311 127.0811
" />
<path d="M121.0311 127.0811
L121.0311 127.5573
" />
<path d="M121.0311 127.5573
L120.9359 127.9382
" />
<path d="M120.9359 127.9382
L120.8406 128.1287
" />
<path d="M120.8406 128.1287
L120.7454 128.2239
" />
<path d="M120.7454 128.2239
L120.5549 128.3192
" />
<path d="M120.5549 128.3192
L120.3645 128.3192
" />
<path d="M120.3645 128.3192
L120.1740 128.2239
" />
<path d="M120.1740 128.2239
L120.0787 128.1287
" />
<path d="M120.0787 128.1287
L119.9835 127.9382
" />
<path d="M119.9835 127.9382
L119.8883 127.5573
" />
<path d="M119.8883 127.5573
L119.8883 127.0811
" />
<path d="M119.8883 127.0811
L119.9835 126.7001
" />
<path d="M119.9835 126.7001
L120.0787 126.5096
" />
<path d="M120.0787 126.5096
L120.1740 126.4144
" />
<path d="M120.1740 126.4144
L120.3645 126.3192
" />
<path d="M122.2692 126.3192
L122.4597 126.3192
" />
<path d="M122.4597 126.3192
L122.6502 126.4144
" />
<path d="M122.6502 126.4144
L122.7454 126.5096
" />
<path d="M122.7454 126.5096
L122.8407 126.7001
" />
<path d="M122.8407 126.7001
L122.9359 127.0811
" />
<path d="M122.9359 127.0811
L122.9359 127.5573
" />
<path d="M122.9359 127.5573
L122.8407 127.9382
" />
<path d="M122.8407 127.9382
L122.7454 128.1287
" />
<path d="M122.7454 128.1287
L122.6502 128.2239
" />
<path d="M122.6502 128.2239
L122.4597 128.3192
" />
<path d="M122.4597 128.3192
L122.2692 128.3192
" />
<path d="M122.2692 128.3192
L122.0787 128.2239
" />
<path d="M122.0787 128.2239
L121.9835 128.1287
" />
<path d="M121.9835 128.1287
L121.8883 127.9382
" />
<path d="M121.8883 127.9382
L121.7930 127.5573
" />
<path d="M121.7930 127.5573
L121.7930 127.0811
" />
<path d="M121.7930 127.0811
L121.8883 126.7001
" />
<path d="M121.8883 126.7001
L121.9835 126.5096
" />
<path d="M121.9835 126.5096
L122.0787 126.4144
" />
<path d="M122.0787 126.4144
L122.2692 126.3192
" />
<path d="M123.7930 128.3192
L123.7930 126.9858
" />
<path d="M123.7930 127.1763
L123.8883 127.0811
" />
<path d="M123.8883 127.0811
L124.0787 126.9858
" />
<path d="M124.0787 126.9858
L124.3645 126.9858
" />
<path d="M124.3645 126.9858
L124.5549 127.0811
" />
<path d="M124.5549 127.0811
L124.6502 127.2715
" />
<path d="M124.6502 127.2715
L124.6502 128.3192
" />
<path d="M124.6502 127.2715
L124.7454 127.0811
" />
<path d="M124.7454 127.0811
L124.9359 126.9858
" />
<path d="M124.9359 126.9858
L125.2216 126.9858
" />
<path d="M125.2216 126.9858
L125.4121 127.0811
" />
<path d="M125.4121 127.0811
L125.5073 127.2715
" />
<path d="M125.5073 127.2715
L125.5073 128.3192
" />
<path d="M126.4597 128.3192
L126.4597 126.9858
" />
<path d="M126.4597 127.1763
L126.5549 127.0811
" />
<path d="M126.5549 127.0811
L126.7454 126.9858
" />
<path d="M126.7454 126.9858
L127.0311 126.9858
" />
<path d="M127.0311 126.9858
L127.2216 127.0811
" />
<path d="M127.2216 127.0811
L127.3168 127.2715
" />
<path d="M127.3168 127.2715
L127.3168 128.3192
" />
<path d="M127.3168 127.2715
L127.4121 127.0811
" />
<path d="M127.4121 127.0811
L127.6026 126.9858
" />
<path d="M127.6026 126.9858
L127.8883 126.9858
" />
<path d="M127.8883 126.9858
L128.0787 127.0811
" />
<path d="M128.0787 127.0811
L128.1740 127.2715
" />
<path d="M128.1740 127.2715
L128.1740 128.3192
" />
<path d="M132.0787 126.2239
L130.3645 128.7953
" />
<path d="M134.6502 126.3192
L134.8406 126.3192
" />
<path d="M134.8406 126.3192
L135.0311 126.4144
" />
<path d="M135.0311 126.4144
L135.1264 126.5096
" />
<path d="M135.1264 126.5096
L135.2216 126.7001
" />
<path d="M135.2216 126.7001
L135.3168 127.0811
" />
<path d="M135.3168 127.0811
L135.3168 127.5573
" />
<path d="M135.3168 127.5573
L135.2216 127.9382
" />
<path d="M135.2216 127.9382
L135.1264 128.1287
" />
<path d="M135.1264 128.1287
L135.0311 128.2239
" />
<path d="M135.0311 128.2239
L134.8406 128.3192
" />
<path d="M134.8406 128.3192
L134.6502 128.3192
" />
<path d="M134.6502 128.3192
L134.4597 128.2239
" />
<path d="M134.4597 128.2239
L134.3645 128.1287
" />
<path d="M134.3645 128.1287
L134.2692 127.9382
" />
<path d="M134.2692 127.9382
L134.1740 127.5573
" />
<path d="M134.1740 127.5573
L134.1740 127.0811
" />
<path d="M134.1740 127.0811
L134.2692 126.7001
" />
<path d="M134.2692 126.7001
L134.3645 126.5096
" />
<path d="M134.3645 126.5096
L134.4597 126.4144
" />
<path d="M134.4597 126.4144
L134.6502 126.3192
" />
<path d="M136.1740 128.1287
L136.2692 128.2239
" />
<path d="M136.2692 128.2239
L136.1740 128.3192
" />
<path d="M136.1740 128.3192
L136.0787 128.2239
" />
<path d="M136.0787 128.2239
L136.1740 128.1287
" />
<path d="M136.1740 128.1287
L136.1740 128.3192
" />
<path d="M137.5073 126.3192
L137.6978 126.3192
" />
<path d="M137.6978 126.3192
L137.8883 126.4144
" />
<path d="M137.8883 126.4144
L137.9835 126.5096
" />
<path d="M137.9835 126.5096
L138.0787 126.7001
" />
<path d="M138.0787 126.7001
L138.1740 127.0811
" />
<path d="M138.1740 127.0811
L138.1740 127.5573
" />
<path d="M138.1740 127.5573
L138.0787 127.9382
" />
<path d="M138.0787 127.9382
L137.9835 128.1287
" />
<path d="M137.9835 128.1287
L137.8883 128.2239
" />
<path d="M137.8883 128.2239
L137.6978 128.3192
" />
<path d="M137.6978 128.3192
L137.5073 128.3192
" />
<path d="M137.5073 128.3192
L137.3168 128.2239
" />
<path d="M137.3168 128.2239
L137.2216 128.1287
" />
<path d="M137.2216 128.1287
L137.1264 127.9382
" />
<path d="M137.1264 127.9382
L137.0311 127.5573
" />
<path d="M137.0311 127.5573
L137.0311 127.0811
" />
<path d="M137.0311 127.0811
L137.1264 126.7001
" />
<path d="M137.1264 126.7001
L137.2216 126.5096
" />
<path d="M137.2216 126.5096
L137.3168 126.4144
" />
<path d="M137.3168 126.4144
L137.5073 126.3192
" />
<path d="M138.8406 126.3192
L140.0787 126.3192
" />
<path d="M140.0787 126.3192
L139.4121 127.0811
" />
<path d="M139.4121 127.0811
L139.6978 127.0811
" />
<path d="M139.6978 127.0811
L139.8883 127.1763
" />
<path d="M139.8883 127.1763
L139.9835 127.2715
" />
<path d="M139.9835 127.2715
L140.0787 127.4620
" />
<path d="M140.0787 127.4620
L140.0787 127.9382
" />
<path d="M140.0787 127.9382
L139.9835 128.1287
" />
<path d="M139.9835 128.1287
L139.8883 128.2239
" />
<path d="M139.8883 128.2239
L139.6978 128.3192
" />
<path d="M139.6978 128.3192
L139.1264 128.3192
" />
<path d="M139.1264 128.3192
L138.9359 128.2239
" />
<path d="M138.9359 128.2239
L138.8406 128.1287
" />
<path d="M141.9835 128.3192
L140.8406 128.3192
" />
<path d="M141.4121 128.3192
L141.4121 126.3192
" />
<path d="M141.4121 126.3192
L141.2216 126.6049
" />
<path d="M141.2216 126.6049
L141.0311 126.7953
" />
<path d="M141.0311 126.7953
L140.8406 126.8906
" />
<path d="M143.7930 126.3192
L142.8406 126.3192
" />
<path d="M142.8406 126.3192
L142.7454 127.2715
" />
<path d="M142.7454 127.2715
L142.8406 127.1763
" />
<path d="M142.8406 127.1763
L143.0311 127.0811
" />
<path d="M143.0311 127.0811
L143.5073 127.0811
" />
<path d="M143.5073 127.0811
L143.6978 127.1763
" />
<path d="M143.6978 127.1763
L143.7930 127.2715
" />
<path d="M143.7930 127.2715
L143.8883 127.4620
" />
<path d="M143.8883 127.4620
L143.8883 127.9382
" />
<path d="M143.8883 127.9382
L143.7930 128.1287
" />
<path d="M143.7930 128.1287
L143.6978 128.2239
" />
<path d="M143.6978 128.2239
L143.5073 128.3192
" />
<path d="M143.5073 128.3192
L143.0311 128.3192
" />
<path d="M143.0311 128.3192
L142.8406 128.2239
" />
<path d="M142.8406 128.2239
L142.7454 128.1287
" />
<path d="M144.6502 126.3192
L144.6502 126.7001
" />
<path d="M145.4121 126.3192
L145.4121 126.7001
" />
<path d="M148.3645 129.0811
L148.2692 128.9858
" />
<path d="M148.2692 128.9858
L148.0787 128.7001
" />
<path d="M148.0787 128.7001
L147.9835 128.5096
" />
<path d="M147.9835 128.5096
L147.8883 128.2239
" />
<path d="M147.8883 128.2239
L147.7930 127.7477
" />
<path d="M147.7930 127.7477
L147.7930 127.3668
" />
<path d="M147.7930 127.3668
L147.8883 126.8906
" />
<path d="M147.8883 126.8906
L147.9835 126.6049
" />
<path d="M147.9835 126.6049
L148.0787 126.4144
" />
<path d="M148.0787 126.4144
L148.2692 126.1287
" />
<path d="M148.2692 126.1287
L148.3645 126.0334
" />
<path d="M149.9835 126.9858
L149.9835 128.3192
" />
<path d="M149.5073 126.2239
L149.0311 127.6525
" />
<path d="M149.0311 127.6525
L150.2692 127.6525
" />
<path d="M151.8883 126.3192
L151.5073 126.3192
" />
<path d="M151.5073 126.3192
L151.3168 126.4144
" />
<path d="M151.3168 126.4144
L151.2216 126.5096
" />
<path d="M151.2216 126.5096
L151.0311 126.7953
" />
<path d="M151.0311 126.7953
L150.9359 127.1763
" />
<path d="M150.9359 127.1763
L150.9359 127.9382
" />
<path d="M150.9359 127.9382
L151.0311 128.1287
" />
<path d="M151.0311 128.1287
L151.1264 128.2239
" />
<path d="M151.1264 128.2239
L151.3168 128.3192
" />
<path d="M151.3168 128.3192
L151.6978 128.3192
" />
<path d="M151.6978 128.3192
L151.8883 128.2239
" />
<path d="M151.8883 128.2239
L151.9835 128.1287
" />
<path d="M151.9835 128.1287
L152.0787 127.9382
" />
<path d="M152.0787 127.9382
L152.0787 127.4620
" />
<path d="M152.0787 127.4620
L151.9835 127.2715
" />
<path d="M151.9835 127.2715
L151.8883 127.1763
" />
<path d="M151.8883 127.1763
L151.6978 127.0811
" />
<path d="M151.6978 127.0811
L151.3168 127.0811
" />
<path d="M151.3168 127.0811
L151.1264 127.1763
" />
<path d="M151.1264 127.1763
L151.0311 127.2715
" />
<path d="M151.0311 127.2715
L150.9359 127.4620
" />
<path d="M154.4597 128.3192
L154.4597 126.3192
" />
<path d="M155.3168 128.3192
L155.3168 127.2715
" />
<path d="M155.3168 127.2715
L155.2216 127.0811
" />
<path d="M155.2216 127.0811
L155.0311 126.9858
" />
<path d="M155.0311 126.9858
L154.7454 126.9858
" />
<path d="M154.7454 126.9858
L154.5549 127.0811
" />
<path d="M154.5549 127.0811
L154.4597 127.1763
" />
<path d="M156.5549 128.3192
L156.3645 128.2239
" />
<path d="M156.3645 128.2239
L156.2692 128.1287
" />
<path d="M156.2692 128.1287
L156.1740 127.9382
" />
<path d="M156.1740 127.9382
L156.1740 127.3668
" />
<path d="M156.1740 127.3668
L156.2692 127.1763
" />
<path d="M156.2692 127.1763
L156.3645 127.0811
" />
<path d="M156.3645 127.0811
L156.5549 126.9858
" />
<path d="M156.5549 126.9858
L156.8406 126.9858
" />
<path d="M156.8406 126.9858
L157.0311 127.0811
" />
<path d="M157.0311 127.0811
L157.1264 127.1763
" />
<path d="M157.1264 127.1763
L157.2216 127.3668
" />
<path d="M157.2216 127.3668
L157.2216 127.9382
" />
<path d="M157.2216 127.9382
L157.1264 128.1287
" />
<path d="M157.1264 128.1287
L157.0311 128.2239
" />
<path d="M157.0311 128.2239
L156.8406 128.3192
" />
<path d="M156.8406 128.3192
L156.5549 128.3192
" />
<path d="M158.3645 128.3192
L158.1740 128.2239
" />
<path d="M158.1740 128.2239
L158.0787 128.0334
" />
<path d="M158.0787 128.0334
L158.0787 126.3192
" />
<path d="M159.8883 128.2239
L159.6978 128.3192
" />
<path d="M159.6978 128.3192
L159.3168 128.3192
" />
<path d="M159.3168 128.3192
L159.1264 128.2239
" />
<path d="M159.1264 128.2239
L159.0311 128.0334
" />
<path d="M159.0311 128.0334
L159.0311 127.2715
" />
<path d="M159.0311 127.2715
L159.1264 127.0811
" />
<path d="M159.1264 127.0811
L159.3168 126.9858
" />
<path d="M159.3168 126.9858
L159.6978 126.9858
" />
<path d="M159.6978 126.9858
L159.8883 127.0811
" />
<path d="M159.8883 127.0811
L159.9835 127.2715
" />
<path d="M159.9835 127.2715
L159.9835 127.4620
" />
<path d="M159.9835 127.4620
L159.0311 127.6525
" />
<path d="M160.7454 128.2239
L160.9359 128.3192
" />
<path d="M160.9359 128.3192
L161.3168 128.3192
" />
<path d="M161.3168 128.3192
L161.5073 128.2239
" />
<path d="M161.5073 128.2239
L161.6025 128.0334
" />
<path d="M161.6025 128.0334
L161.6025 127.9382
" />
<path d="M161.6025 127.9382
L161.5073 127.7477
" />
<path d="M161.5073 127.7477
L161.3168 127.6525
" />
<path d="M161.3168 127.6525
L161.0311 127.6525
" />
<path d="M161.0311 127.6525
L160.8406 127.5573
" />
<path d="M160.8406 127.5573
L160.7454 127.3668
" />
<path d="M160.7454 127.3668
L160.7454 127.2715
" />
<path d="M160.7454 127.2715
L160.8406 127.0811
" />
<path d="M160.8406 127.0811
L161.0311 126.9858
" />
<path d="M161.0311 126.9858
L161.3168 126.9858
" />
<path d="M161.3168 126.9858
L161.5073 127.0811
" />
<path d="M162.2692 129.0811
L162.3645 128.9858
" />
<path d="M162.3645 128.9858
L162.5549 128.7001
" />
<path d="M162.5549 128.7001
L162.6502 128.5096
" />
<path d="M162.6502 128.5096
L162.7454 128.2239
" />
<path d="M162.7454 128.2239
L162.8406 127.7477
" />
<path d="M162.8406 127.7477
L162.8406 127.3668
" />
<path d="M162.8406 127.3668
L162.7454 126.8906
" />
<path d="M162.7454 126.8906
L162.6502 126.6049
" />
<path d="M162.6502 126.6049
L162.5549 126.4144
" />
<path d="M162.5549 126.4144
L162.3645 126.1287
" />
<path d="M162.3645 126.1287
L162.2692 126.0334
" />
</g></g>
<g style="fill:#000000; fill-opacity:0.0; 
stroke:#000000; stroke-width:0.1339; stroke-opacity:1; 
stroke-linecap:round; stroke-linejoin:round;">
<circle cx="111.9441" cy="130.0443" r="0.6697" /> 
</g>
<g style="fill:#000000; fill-opacity:0.0; 
stroke:#000000; stroke-width:0.2679; stroke-opacity:1; 
stroke-linecap:round; stroke-linejoin:round;">
</g>
<g style="fill:#000000; fill-opacity:0.0; 
stroke:#000000; stroke-width:0.2000; stroke-opacity:1; 
stroke-linecap:round; stroke-linejoin:round;">
<text x="114.6138" y="131.0443"
textLength="48.7714" font-size="2.6667" lengthAdjust="spacingAndGlyphs"
text-anchor="start" opacity="0">1.000mm / 0.0394" (19 holes)</text>
<g class="stroked-text"><desc>1.000mm / 0.0394" (19 holes)</desc>
<path d="M116.2692 130.9592
L115.1264 130.9592
" />
<path d="M115.6978 130.9592
L115.6978 128.9592
" />
<path d="M115.6978 128.9592
L115.5073 129.2449
" />
<path d="M115.5073 129.2449
L115.3168 129.4353
" />
<path d="M115.3168 129.4353
L115.1264 129.5306
" />
<path d="M117.1264 130.7687
L117.2216 130.8639
" />
<path d="M117.2216 130.8639
L117.1264 130.9592
" />
<path d="M117.1264 130.9592
L117.0311 130.8639
" />
<path d="M117.0311 130.8639
L117.1264 130.7687
" />
<path d="M117.1264 130.7687
L117.1264 130.9592
" />
<path d="M118.4597 128.9592
L118.6502 128.9592
" />
<path d="M118.6502 128.9592
L118.8407 129.0544
" />
<path d="M118.8407 129.0544
L118.9359 129.1496
" />
<path d="M118.9359 129.1496
L119.0311 129.3401
" />
<path d="M119.0311 129.3401
L119.1264 129.7211
" />
<path d="M119.1264 129.7211
L119.1264 130.1973
" />
<path d="M119.1264 130.1973
L119.0311 130.5782
" />
<path d="M119.0311 130.5782
L118.9359 130.7687
" />
<path d="M118.9359 130.7687
L118.8407 130.8639
" />
<path d="M118.8407 130.8639
L118.6502 130.9592
" />
<path d="M118.6502 130.9592
L118.4597 130.9592
" />
<path d="M118.4597 130.9592
L118.2692 130.8639
" />
<path d="M118.2692 130.8639
L118.1740 130.7687
" />
<path d="M118.1740 130.7687
L118.0787 130.5782
" />
<path d="M118.0787 130.5782
L117.9835 130.1973
" />
<path d="M117.9835 130.1973
L117.9835 129.7211
" />
<path d="M117.9835 129.7211
L118.0787 129.3401
" />
<path d="M118.0787 129.3401
L118.1740 129.1496
" />
<path d="M118.1740 129.1496
L118.2692 129.0544
" />
<path d="M118.2692 129.0544
L118.4597 128.9592
" />
<path d="M120.3645 128.9592
L120.5549 128.9592
" />
<path d="M120.5549 128.9592
L120.7454 129.0544
" />
<path d="M120.7454 129.0544
L120.8406 129.1496
" />
<path d="M120.8406 129.1496
L120.9359 129.3401
" />
<path d="M120.9359 129.3401
L121.0311 129.7211
" />
<path d="M121.0311 129.7211
L121.0311 130.1973
" />
<path d="M121.0311 130.1973
L120.9359 130.5782
" />
<path d="M120.9359 130.5782
L120.8406 130.7687
" />
<path d="M120.8406 130.7687
L120.7454 130.8639
" />
<path d="M120.7454 130.8639
L120.5549 130.9592
" />
<path d="M120.5549 130.9592
L120.3645 130.9592
" />
<path d="M120.3645 130.9592
L120.1740 130.8639
" />
<path d="M120.1740 130.8639
L120.0787 130.7687
" />
<path d="M120.0787 130.7687
L119.9835 130.5782
" />
<path d="M119.9835 130.5782
L119.8883 130.1973
" />
<path d="M119.8883 130.1973
L119.8883 129.7211
" />
<path d="M119.8883 129.7211
L119.9835 129.3401
" />
<path d="M119.9835 129.3401
L120.0787 129.1496
" />
<path d="M120.0787 129.1496
L120.1740 129.0544
" />
<path d="M120.1740 129.0544
L120.3645 128.9592
" />
<path d="M122.2692 128.9592
L122.4597 128.9592
" />
<path d="M122.4597 128.9592
L122.6502 129.0544
" />
<path d="M122.6502 129.0544
L122.7454 129.1496
" />
<path d="M122.7454 129.1496
L122.8407 129.3401
" />
<path d="M122.8407 129.3401
L122.9359 129.7211
" />
<path d="M122.9359 129.7211
L122.9359 130.1973
" />
<path d="M122.9359 130.1973
L122.8407 130.5782
" />
<path d="M122.8407 130.5782
L122.7454 130.7687
" />
<path d="M122.7454 130.7687
L122.6502 130.8639
" />
<path d="M122.6502 130.8639
L122.4597 130.9592
" />
<path d="M122.4597 130.9592
L122.2692 130.9592
" />
<path d="M122.2692 130.9592
L122.0787 130.8639
" />
<path d="M122.0787 130.8639
L121.9835 130.7687
" />
<path d="M121.9835 130.7687
L121.8883 130.5782
" />
<path d="M121.8883 130.5782
L121.7930 130.1973
" />
<path d="M121.7930 130.1973
L121.7930 129.7211
" />
<path d="M121.7930 129.7211
L121.8883 129.3401
" />
<path d="M121.8883 129.3401
L121.9835 129.1496
" />
<path d="M121.9835 129.1496
L122.0787 129.0544
" />
<path d="M122.0787 129.0544
L122.2692 128.9592
" />
<path d="M123.7930 130.9592
L123.7930 129.6258
" />
<path d="M123.7930 129.8163
L123.8883 129.7211
" />
<path d="M123.8883 129.7211
L124.0787 129.6258
" />
<path d="M124.0787 129.6258
L124.3645 129.6258
" />
<path d="M124.3645 129.6258
L124.5549 129.7211
" />
<path d="M124.5549 129.7211
L124.6502 129.9115
" />
<path d="M124.6502 129.9115
L124.6502 130.9592
" />
<path d="M124.6502 129.9115
L124.7454 129.7211
" />
<path d="M124.7454 129.7211
L124.9359 129.6258
" />
<path d="M124.9359 129.6258
L125.2216 129.6258
" />
<path d="M125.2216 129.6258
L125.4121 129.7211
" />
<path d="M125.4121 129.7211
L125.5073 129.9115
" />
<path d="M125.5073 129.9115
L125.5073 130.9592
" />
<path d="M126.4597 130.9592
L126.4597 129.6258
" />
<path d="M126.4597 129.8163
L126.5549 129.7211
" />
<path d="M126.5549 129.7211
L126.7454 129.6258
" />
<path d="M126.7454 129.6258
L127.0311 129.6258
" />
<path d="M127.0311 129.6258
L127.2216 129.7211
" />
<path d="M127.2216 129.7211
L127.3168 129.9115
" />
<path d="M127.3168 129.9115
L127.3168 130.9592
" />
<path d="M127.3168 129.9115
L127.4121 129.7211
" />
<path d="M127.4121 129.7211
L127.6026 129.6258
" />
<path d="M127.6026 129.6258
L127.8883 129.6258
" />
<path d="M127.8883 129.6258
L128.0787 129.7211
" />
<path d="M128.0787 129.7211
L128.1740 129.9115
" />
<path d="M128.1740 129.9115
L128.1740 130.9592
" />
<path d="M132.0787 128.8639
L130.3645 131.4353
" />
<path d="M134.6502 128.9592
L134.8406 128.9592
" />
<path d="M134.8406 128.9592
L135.0311 129.0544
" />
<path d="M135.0311 129.0544
L135.1264 129.1496
" />
<path d="M135.1264 129.1496
L135.2216 129.3401
" />
<path d="M135.2216 129.3401
L135.3168 129.7211
" />
<path d="M135.3168 129.7211
L135.3168 130.1973
" />
<path d="M135.3168 130.1973
L135.2216 130.5782
" />
<path d="M135.2216 130.5782
L135.1264 130.7687
" />
<path d="M135.1264 130.7687
L135.0311 130.8639
" />
<path d="M135.0311 130.8639
L134.8406 130.9592
" />
<path d="M134.8406 130.9592
L134.6502 130.9592
" />
<path d="M134.6502 130.9592
L134.4597 130.8639
" />
<path d="M134.4597 130.8639
L134.3645 130.7687
" />
<path d="M134.3645 130.7687
L134.2692 130.5782
" />
<path d="M134.2692 130.5782
L134.1740 130.1973
" />
<path d="M134.1740 130.1973
L134.1740 129.7211
" />
<path d="M134.1740 129.7211
L134.2692 129.3401
" />
<path d="M134.2692 129.3401
L134.3645 129.1496
" />
<path d="M134.3645 129.1496
L134.4597 129.0544
" />
<path d="M134.4597 129.0544
L134.6502 128.9592
" />
<path d="M136.1740 130.7687
L136.2692 130.8639
" />
<path d="M136.2692 130.8639
L136.1740 130.9592
" />
<path d="M136.1740 130.9592
L136.0787 130.8639
" />
<path d="M136.0787 130.8639
L136.1740 130.7687
" />
<path d="M136.1740 130.7687
L136.1740 130.9592
" />
<path d="M137.5073 128.9592
L137.6978 128.9592
" />
<path d="M137.6978 128.9592
L137.8883 129.0544
" />
<path d="M137.8883 129.0544
L137.9835 129.1496
" />
<path d="M137.9835 129.1496
L138.0787 129.3401
" />
<path d="M138.0787 129.3401
L138.1740 129.7211
" />
<path d="M138.1740 129.7211
L138.1740 130.1973
" />
<path d="M138.1740 130.1973
L138.0787 130.5782
" />
<path d="M138.0787 130.5782
L137.9835 130.7687
" />
<path d="M137.9835 130.7687
L137.8883 130.8639
" />
<path d="M137.8883 130.8639
L137.6978 130.9592
" />
<path d="M137.6978 130.9592
L137.5073 130.9592
" />
<path d="M137.5073 130.9592
L137.3168 130.8639
" />
<path d="M137.3168 130.8639
L137.2216 130.7687
" />
<path d="M137.2216 130.7687
L137.1264 130.5782
" />
<path d="M137.1264 130.5782
L137.0311 130.1973
" />
<path d="M137.0311 130.1973
L137.0311 129.7211
" />
<path d="M137.0311 129.7211
L137.1264 129.3401
" />
<path d="M137.1264 129.3401
L137.2216 129.1496
" />
<path d="M137.2216 129.1496
L137.3168 129.0544
" />
<path d="M137.3168 129.0544
L137.5073 128.9592
" />
<path d="M138.8406 128.9592
L140.0787 128.9592
" />
<path d="M140.0787 128.9592
L139.4121 129.7211
" />
<path d="M139.4121 129.7211
L139.6978 129.7211
" />
<path d="M139.6978 129.7211
L139.8883 129.8163
" />
<path d="M139.8883 129.8163
L139.9835 129.9115
" />
<path d="M139.9835 129.9115
L140.0787 130.1020
" />
<path d="M140.0787 130.1020
L140.0787 130.5782
" />
<path d="M140.0787 130.5782
L139.9835 130.7687
" />
<path d="M139.9835 130.7687
L139.8883 130.8639
" />
<path d="M139.8883 130.8639
L139.6978 130.9592
" />
<path d="M139.6978 130.9592
L139.1264 130.9592
" />
<path d="M139.1264 130.9592
L138.9359 130.8639
" />
<path d="M138.9359 130.8639
L138.8406 130.7687
" />
<path d="M141.0311 130.9592
L141.4121 130.9592
" />
<path d="M141.4121 130.9592
L141.6026 130.8639
" />
<path d="M141.6026 130.8639
L141.6978 130.7687
" />
<path d="M141.6978 130.7687
L141.8883 130.4830
" />
<path d="M141.8883 130.4830
L141.9835 130.1020
" />
<path d="M141.9835 130.1020
L141.9835 129.3401
" />
<path d="M141.9835 129.3401
L141.8883 129.1496
" />
<path d="M141.8883 129.1496
L141.7930 129.0544
" />
<path d="M141.7930 129.0544
L141.6026 128.9592
" />
<path d="M141.6026 128.9592
L141.2216 128.9592
" />
<path d="M141.2216 128.9592
L141.0311 129.0544
" />
<path d="M141.0311 129.0544
L140.9359 129.1496
" />
<path d="M140.9359 129.1496
L140.8406 129.3401
" />
<path d="M140.8406 129.3401
L140.8406 129.8163
" />
<path d="M140.8406 129.8163
L140.9359 130.0068
" />
<path d="M140.9359 130.0068
L141.0311 130.1020
" />
<path d="M141.0311 130.1020
L141.2216 130.1973
" />
<path d="M141.2216 130.1973
L141.6026 130.1973
" />
<path d="M141.6026 130.1973
L141.7930 130.1020
" />
<path d="M141.7930 130.1020
L141.8883 130.0068
" />
<path d="M141.8883 130.0068
L141.9835 129.8163
" />
<path d="M143.6978 129.6258
L143.6978 130.9592
" />
<path d="M143.2216 128.8639
L142.7454 130.2925
" />
<path d="M142.7454 130.2925
L143.9835 130.2925
" />
<path d="M144.6502 128.9592
L144.6502 129.3401
" />
<path d="M145.4121 128.9592
L145.4121 129.3401
" />
<path d="M148.3645 131.7211
L148.2692 131.6258
" />
<path d="M148.2692 131.6258
L148.0787 131.3401
" />
<path d="M148.0787 131.3401
L147.9835 131.1496
" />
<path d="M147.9835 131.1496
L147.8883 130.8639
" />
<path d="M147.8883 130.8639
L147.7930 130.3877
" />
<path d="M147.7930 130.3877
L147.7930 130.0068
" />
<path d="M147.7930 130.0068
L147.8883 129.5306
" />
<path d="M147.8883 129.5306
L147.9835 129.2449
" />
<path d="M147.9835 129.2449
L148.0787 129.0544
" />
<path d="M148.0787 129.0544
L148.2692 128.7687
" />
<path d="M148.2692 128.7687
L148.3645 128.6734
" />
<path d="M150.1740 130.9592
L149.0311 130.9592
" />
<path d="M149.6025 130.9592
L149.6025 128.9592
" />
<path d="M149.6025 128.9592
L149.4121 129.2449
" />
<path d="M149.4121 129.2449
L149.2216 129.4353
" />
<path d="M149.2216 129.4353
L149.0311 129.5306
" />
<path d="M151.1264 130.9592
L151.5073 130.9592
" />
<path d="M151.5073 130.9592
L151.6978 130.8639
" />
<path d="M151.6978 130.8639
L151.7930 130.7687
" />
<path d="M151.7930 130.7687
L151.9835 130.4830
" />
<path d="M151.9835 130.4830
L152.0787 130.1020
" />
<path d="M152.0787 130.1020
L152.0787 129.3401
" />
<path d="M152.0787 129.3401
L151.9835 129.1496
" />
<path d="M151.9835 129.1496
L151.8883 129.0544
" />
<path d="M151.8883 129.0544
L151.6978 128.9592
" />
<path d="M151.6978 128.9592
L151.3168 128.9592
" />
<path d="M151.3168 128.9592
L151.1264 129.0544
" />
<path d="M151.1264 129.0544
L151.0311 129.1496
" />
<path d="M151.0311 129.1496
L150.9359 129.3401
" />
<path d="M150.9359 129.3401
L150.9359 129.8163
" />
<path d="M150.9359 129.8163
L151.0311 130.0068
" />
<path d="M151.0311 130.0068
L151.1264 130.1020
" />
<path d="M151.1264 130.1020
L151.3168 130.1973
" />
<path d="M151.3168 130.1973
L151.6978 130.1973
" />
<path d="M151.6978 130.1973
L151.8883 130.1020
" />
<path d="M151.8883 130.1020
L151.9835 130.0068
" />
<path d="M151.9835 130.0068
L152.0787 129.8163
" />
<path d="M154.4597 130.9592
L154.4597 128.9592
" />
<path d="M155.3168 130.9592
L155.3168 129.9115
" />
<path d="M155.3168 129.9115
L155.2216 129.7211
" />
<path d="M155.2216 129.7211
L155.0311 129.6258
" />
<path d="M155.0311 129.6258
L154.7454 129.6258
" />
<path d="M154.7454 129.6258
L154.5549 129.7211
" />
<path d="M154.5549 129.7211
L154.4597 129.8163
" />
<path d="M156.5549 130.9592
L156.3645 130.8639
" />
<path d="M156.3645 130.8639
L156.2692 130.7687
" />
<path d="M156.2692 130.7687
L156.1740 130.5782
" />
<path d="M156.1740 130.5782
L156.1740 130.0068
" />
<path d="M156.1740 130.0068
L156.2692 129.8163
" />
<path d="M156.2692 129.8163
L156.3645 129.7211
" />
<path d="M156.3645 129.7211
L156.5549 129.6258
" />
<path d="M156.5549 129.6258
L156.8406 129.6258
" />
<path d="M156.8406 129.6258
L157.0311 129.7211
" />
<path d="M157.0311 129.7211
L157.1264 129.8163
" />
<path d="M157.1264 129.8163
L157.2216 130.0068
" />
<path d="M157.2216 130.0068
L157.2216 130.5782
" />
<path d="M157.2216 130.5782
L157.1264 130.7687
" />
<path d="M157.1264 130.7687
L157.0311 130.8639
" />
<path d="M157.0311 130.8639
L156.8406 130.9592
" />
<path d="M156.8406 130.9592
L156.5549 130.9592
" />
<path d="M158.3645 130.9592
L158.1740 130.8639
" />
<path d="M158.1740 130.8639
L158.0787 130.6734
" />
<path d="M158.0787 130.6734
L158.0787 128.9592
" />
<path d="M159.8883 130.8639
L159.6978 130.9592
" />
<path d="M159.6978 130.9592
L159.3168 130.9592
" />
<path d="M159.3168 130.9592
L159.1264 130.8639
" />
<path d="M159.1264 130.8639
L159.0311 130.6734
" />
<path d="M159.0311 130.6734
L159.0311 129.9115
" />
<path d="M159.0311 129.9115
L159.1264 129.7211
" />
<path d="M159.1264 129.7211
L159.3168 129.6258
" />
<path d="M159.3168 129.6258
L159.6978 129.6258
" />
<path d="M159.6978 129.6258
L159.8883 129.7211
" />
<path d="M159.8883 129.7211
L159.9835 129.9115
" />
<path d="M159.9835 129.9115
L159.9835 130.1020
" />
<path d="M159.9835 130.1020
L159.0311 130.2925
" />
<path d="M160.7454 130.8639
L160.9359 130.9592
" />
<path d="M160.9359 130.9592
L161.3168 130.9592
" />
<path d="M161.3168 130.9592
L161.5073 130.8639
" />
<path d="M161.5073 130.8639
L161.6025 130.6734
" />
<path d="M161.6025 130.6734
L161.6025 130.5782
" />
<path d="M161.6025 130.5782
L161.5073 130.3877
" />
<path d="M161.5073 130.3877
L161.3168 130.2925
" />
<path d="M161.3168 130.2925
L161.0311 130.2925
" />
<path d="M161.0311 130.2925
L160.8406 130.1973
" />
<path d="M160.8406 130.1973
L160.7454 130.0068
" />
<path d="M160.7454 130.0068
L160.7454 129.9115
" />
<path d="M160.7454 129.9115
L160.8406 129.7211
" />
<path d="M160.8406 129.7211
L161.0311 129.6258
" />
<path d="M161.0311 129.6258
L161.3168 129.6258
" />
<path d="M161.3168 129.6258
L161.5073 129.7211
" />
<path d="M162.2692 131.7211
L162.3645 131.6258
" />
<path d="M162.3645 131.6258
L162.5549 131.3401
" />
<path d="M162.5549 131.3401
L162.6502 131.1496
" />
<path d="M162.6502 131.1496
L162.7454 130.8639
" />
<path d="M162.7454 130.8639
L162.8406 130.3877
" />
<path d="M162.8406 130.3877
L162.8406 130.0068
" />
<path d="M162.8406 130.0068
L162.7454 129.5306
" />
<path d="M162.7454 129.5306
L162.6502 129.2449
" />
<path d="M162.6502 129.2449
L162.5549 129.0544
" />
<path d="M162.5549 129.0544
L162.3645 128.7687
" />
<path d="M162.3645 128.7687
L162.2692 128.6734
" />
</g><path d="M111.6138 131.6843
L111.6138 133.6843
" />
<path d="M110.6138 132.6843
L112.6138 132.6843
" />
</g>
<g style="fill:#000000; fill-opacity:0.0; 
stroke:#000000; stroke-width:0.2679; stroke-opacity:1; 
stroke-linecap:round; stroke-linejoin:round;">
</g>
<g style="fill:#000000; fill-opacity:0.0; 
stroke:#000000; stroke-width:0.2000; stroke-opacity:1; 
stroke-linecap:round; stroke-linejoin:round;">
<text x="114.6138" y="133.6843"
textLength="46.8667" font-size="2.6667" lengthAdjust="spacingAndGlyphs"
text-anchor="start" opacity="0">2.300mm / 0.0906" (4 holes)</text>
<g class="stroked-text"><desc>2.300mm / 0.0906" (4 holes)</desc>
<path d="M115.1264 131.7896
L115.2216 131.6944
" />
<path d="M115.2216 131.6944
L115.4121 131.5992
" />
<path d="M115.4121 131.5992
L115.8883 131.5992
" />
<path d="M115.8883 131.5992
L116.0787 131.6944
" />
<path d="M116.0787 131.6944
L116.1740 131.7896
" />
<path d="M116.1740 131.7896
L116.2692 131.9801
" />
<path d="M116.2692 131.9801
L116.2692 132.1706
" />
<path d="M116.2692 132.1706
L116.1740 132.4563
" />
<path d="M116.1740 132.4563
L115.0311 133.5992
" />
<path d="M115.0311 133.5992
L116.2692 133.5992
" />
<path d="M117.1264 133.4087
L117.2216 133.5039
" />
<path d="M117.2216 133.5039
L117.1264 133.5992
" />
<path d="M117.1264 133.5992
L117.0311 133.5039
" />
<path d="M117.0311 133.5039
L117.1264 133.4087
" />
<path d="M117.1264 133.4087
L117.1264 133.5992
" />
<path d="M117.8883 131.5992
L119.1264 131.5992
" />
<path d="M119.1264 131.5992
L118.4597 132.3611
" />
<path d="M118.4597 132.3611
L118.7454 132.3611
" />
<path d="M118.7454 132.3611
L118.9359 132.4563
" />
<path d="M118.9359 132.4563
L119.0311 132.5515
" />
<path d="M119.0311 132.5515
L119.1264 132.7420
" />
<path d="M119.1264 132.7420
L119.1264 133.2182
" />
<path d="M119.1264 133.2182
L119.0311 133.4087
" />
<path d="M119.0311 133.4087
L118.9359 133.5039
" />
<path d="M118.9359 133.5039
L118.7454 133.5992
" />
<path d="M118.7454 133.5992
L118.1740 133.5992
" />
<path d="M118.1740 133.5992
L117.9835 133.5039
" />
<path d="M117.9835 133.5039
L117.8883 133.4087
" />
<path d="M120.3645 131.5992
L120.5549 131.5992
" />
<path d="M120.5549 131.5992
L120.7454 131.6944
" />
<path d="M120.7454 131.6944
L120.8406 131.7896
" />
<path d="M120.8406 131.7896
L120.9359 131.9801
" />
<path d="M120.9359 131.9801
L121.0311 132.3611
" />
<path d="M121.0311 132.3611
L121.0311 132.8373
" />
<path d="M121.0311 132.8373
L120.9359 133.2182
" />
<path d="M120.9359 133.2182
L120.8406 133.4087
" />
<path d="M120.8406 133.4087
L120.7454 133.5039
" />
<path d="M120.7454 133.5039
L120.5549 133.5992
" />
<path d="M120.5549 133.5992
L120.3645 133.5992
" />
<path d="M120.3645 133.5992
L120.1740 133.5039
" />
<path d="M120.1740 133.5039
L120.0787 133.4087
" />
<path d="M120.0787 133.4087
L119.9835 133.2182
" />
<path d="M119.9835 133.2182
L119.8883 132.8373
" />
<path d="M119.8883 132.8373
L119.8883 132.3611
" />
<path d="M119.8883 132.3611
L119.9835 131.9801
" />
<path d="M119.9835 131.9801
L120.0787 131.7896
" />
<path d="M120.0787 131.7896
L120.1740 131.6944
" />
<path d="M120.1740 131.6944
L120.3645 131.5992
" />
<path d="M122.2692 131.5992
L122.4597 131.5992
" />
<path d="M122.4597 131.5992
L122.6502 131.6944
" />
<path d="M122.6502 131.6944
L122.7454 131.7896
" />
<path d="M122.7454 131.7896
L122.8407 131.9801
" />
<path d="M122.8407 131.9801
L122.9359 132.3611
" />
<path d="M122.9359 132.3611
L122.9359 132.8373
" />
<path d="M122.9359 132.8373
L122.8407 133.2182
" />
<path d="M122.8407 133.2182
L122.7454 133.4087
" />
<path d="M122.7454 133.4087
L122.6502 133.5039
" />
<path d="M122.6502 133.5039
L122.4597 133.5992
" />
<path d="M122.4597 133.5992
L122.2692 133.5992
" />
<path d="M122.2692 133.5992
L122.0787 133.5039
" />
<path d="M122.0787 133.5039
L121.9835 133.4087
" />
<path d="M121.9835 133.4087
L121.8883 133.2182
" />
<path d="M121.8883 133.2182
L121.7930 132.8373
" />
<path d="M121.7930 132.8373
L121.7930 132.3611
" />
<path d="M121.7930 132.3611
L121.8883 131.9801
" />
<path d="M121.8883 131.9801
L121.9835 131.7896
" />
<path d="M121.9835 131.7896
L122.0787 131.6944
" />
<path d="M122.0787 131.6944
L122.2692 131.5992
" />
<path d="M123.7930 133.5992
L123.7930 132.2658
" />
<path d="M123.7930 132.4563
L123.8883 132.3611
" />
<path d="M123.8883 132.3611
L124.0787 132.2658
" />
<path d="M124.0787 132.2658
L124.3645 132.2658
" />
<path d="M124.3645 132.2658
L124.5549 132.3611
" />
<path d="M124.5549 132.3611
L124.6502 132.5515
" />
<path d="M124.6502 132.5515
L124.6502 133.5992
" />
<path d="M124.6502 132.5515
L124.7454 132.3611
" />
<path d="M124.7454 132.3611
L124.9359 132.2658
" />
<path d="M124.9359 132.2658
L125.2216 132.2658
" />
<path d="M125.2216 132.2658
L125.4121 132.3611
" />
<path d="M125.4121 132.3611
L125.5073 132.5515
" />
<path d="M125.5073 132.5515
L125.5073 133.5992
" />
<path d="M126.4597 133.5992
L126.4597 132.2658
" />
<path d="M126.4597 132.4563
L126.5549 132.3611
" />
<path d="M126.5549 132.3611
L126.7454 132.2658
" />
<path d="M126.7454 132.2658
L127.0311 132.2658
" />
<path d="M127.0311 132.2658
L127.2216 132.3611
" />
<path d="M127.2216 132.3611
L127.3168 132.5515
" />
<path d="M127.3168 132.5515
L127.3168 133.5992
" />
<path d="M127.3168 132.5515
L127.4121 132.3611
" />
<path d="M127.4121 132.3611
L127.6026 132.2658
" />
<path d="M127.6026 132.2658
L127.8883 132.2658
" />
<path d="M127.8883 132.2658
L128.0787 132.3611
" />
<path d="M128.0787 132.3611
L128.1740 132.5515
" />
<path d="M128.1740 132.5515
L128.1740 133.5992
" />
<path d="M132.0787 131.5039
L130.3645 134.0753
" />
<path d="M134.6502 131.5992
L134.8406 131.5992
" />
<path d="M134.8406 131.5992
L135.0311 131.6944
" />
<path d="M135.0311 131.6944
L135.1264 131.7896
" />
<path d="M135.1264 131.7896
L135.2216 131.9801
" />
<path d="M135.2216 131.9801
L135.3168 132.3611
" />
<path d="M135.3168 132.3611
L135.3168 132.8373
" />
<path d="M135.3168 132.8373
L135.2216 133.2182
" />
<path d="M135.2216 133.2182
L135.1264 133.4087
" />
<path d="M135.1264 133.4087
L135.0311 133.5039
" />
<path d="M135.0311 133.5039
L134.8406 133.5992
" />
<path d="M134.8406 133.5992
L134.6502 133.5992
" />
<path d="M134.6502 133.5992
L134.4597 133.5039
" />
<path d="M134.4597 133.5039
L134.3645 133.4087
" />
<path d="M134.3645 133.4087
L134.2692 133.2182
" />
<path d="M134.2692 133.2182
L134.1740 132.8373
" />
<path d="M134.1740 132.8373
L134.1740 132.3611
" />
<path d="M134.1740 132.3611
L134.2692 131.9801
" />
<path d="M134.2692 131.9801
L134.3645 131.7896
" />
<path d="M134.3645 131.7896
L134.4597 131.6944
" />
<path d="M134.4597 131.6944
L134.6502 131.5992
" />
<path d="M136.1740 133.4087
L136.2692 133.5039
" />
<path d="M136.2692 133.5039
L136.1740 133.5992
" />
<path d="M136.1740 133.5992
L136.0787 133.5039
" />
<path d="M136.0787 133.5039
L136.1740 133.4087
" />
<path d="M136.1740 133.4087
L136.1740 133.5992
" />
<path d="M137.5073 131.5992
L137.6978 131.5992
" />
<path d="M137.6978 131.5992
L137.8883 131.6944
" />
<path d="M137.8883 131.6944
L137.9835 131.7896
" />
<path d="M137.9835 131.7896
L138.0787 131.9801
" />
<path d="M138.0787 131.9801
L138.1740 132.3611
" />
<path d="M138.1740 132.3611
L138.1740 132.8373
" />
<path d="M138.1740 132.8373
L138.0787 133.2182
" />
<path d="M138.0787 133.2182
L137.9835 133.4087
" />
<path d="M137.9835 133.4087
L137.8883 133.5039
" />
<path d="M137.8883 133.5039
L137.6978 133.5992
" />
<path d="M137.6978 133.5992
L137.5073 133.5992
" />
<path d="M137.5073 133.5992
L137.3168 133.5039
" />
<path d="M137.3168 133.5039
L137.2216 133.4087
" />
<path d="M137.2216 133.4087
L137.1264 133.2182
" />
<path d="M137.1264 133.2182
L137.0311 132.8373
" />
<path d="M137.0311 132.8373
L137.0311 132.3611
" />
<path d="M137.0311 132.3611
L137.1264 131.9801
" />
<path d="M137.1264 131.9801
L137.2216 131.7896
" />
<path d="M137.2216 131.7896
L137.3168 131.6944
" />
<path d="M137.3168 131.6944
L137.5073 131.5992
" />
<path d="M139.1264 133.5992
L139.5073 133.5992
" />
<path d="M139.5073 133.5992
L139.6978 133.5039
" />
<path d="M139.6978 133.5039
L139.7930 133.4087
" />
<path d="M139.7930 133.4087
L139.9835 133.1230
" />
<path d="M139.9835 133.1230
L140.0787 132.7420
" />
<path d="M140.0787 132.7420
L140.0787 131.9801
" />
<path d="M140.0787 131.9801
L139.9835 131.7896
" />
<path d="M139.9835 131.7896
L139.8883 131.6944
" />
<path d="M139.8883 131.6944
L139.6978 131.5992
" />
<path d="M139.6978 131.5992
L139.3168 131.5992
" />
<path d="M139.3168 131.5992
L139.1264 131.6944
" />
<path d="M139.1264 131.6944
L139.0311 131.7896
" />
<path d="M139.0311 131.7896
L138.9359 131.9801
" />
<path d="M138.9359 131.9801
L138.9359 132.4563
" />
<path d="M138.9359 132.4563
L139.0311 132.6468
" />
<path d="M139.0311 132.6468
L139.1264 132.7420
" />
<path d="M139.1264 132.7420
L139.3168 132.8373
" />
<path d="M139.3168 132.8373
L139.6978 132.8373
" />
<path d="M139.6978 132.8373
L139.8883 132.7420
" />
<path d="M139.8883 132.7420
L139.9835 132.6468
" />
<path d="M139.9835 132.6468
L140.0787 132.4563
" />
<path d="M141.3168 131.5992
L141.5073 131.5992
" />
<path d="M141.5073 131.5992
L141.6978 131.6944
" />
<path d="M141.6978 131.6944
L141.7930 131.7896
" />
<path d="M141.7930 131.7896
L141.8883 131.9801
" />
<path d="M141.8883 131.9801
L141.9835 132.3611
" />
<path d="M141.9835 132.3611
L141.9835 132.8373
" />
<path d="M141.9835 132.8373
L141.8883 133.2182
" />
<path d="M141.8883 133.2182
L141.7930 133.4087
" />
<path d="M141.7930 133.4087
L141.6978 133.5039
" />
<path d="M141.6978 133.5039
L141.5073 133.5992
" />
<path d="M141.5073 133.5992
L141.3168 133.5992
" />
<path d="M141.3168 133.5992
L141.1264 133.5039
" />
<path d="M141.1264 133.5039
L141.0311 133.4087
" />
<path d="M141.0311 133.4087
L140.9359 133.2182
" />
<path d="M140.9359 133.2182
L140.8406 132.8373
" />
<path d="M140.8406 132.8373
L140.8406 132.3611
" />
<path d="M140.8406 132.3611
L140.9359 131.9801
" />
<path d="M140.9359 131.9801
L141.0311 131.7896
" />
<path d="M141.0311 131.7896
L141.1264 131.6944
" />
<path d="M141.1264 131.6944
L141.3168 131.5992
" />
<path d="M143.6978 131.5992
L143.3168 131.5992
" />
<path d="M143.3168 131.5992
L143.1264 131.6944
" />
<path d="M143.1264 131.6944
L143.0311 131.7896
" />
<path d="M143.0311 131.7896
L142.8406 132.0753
" />
<path d="M142.8406 132.0753
L142.7454 132.4563
" />
<path d="M142.7454 132.4563
L142.7454 133.2182
" />
<path d="M142.7454 133.2182
L142.8406 133.4087
" />
<path d="M142.8406 133.4087
L142.9359 133.5039
" />
<path d="M142.9359 133.5039
L143.1264 133.5992
" />
<path d="M143.1264 133.5992
L143.5073 133.5992
" />
<path d="M143.5073 133.5992
L143.6978 133.5039
" />
<path d="M143.6978 133.5039
L143.7930 133.4087
" />
<path d="M143.7930 133.4087
L143.8883 133.2182
" />
<path d="M143.8883 133.2182
L143.8883 132.7420
" />
<path d="M143.8883 132.7420
L143.7930 132.5515
" />
<path d="M143.7930 132.5515
L143.6978 132.4563
" />
<path d="M143.6978 132.4563
L143.5073 132.3611
" />
<path d="M143.5073 132.3611
L143.1264 132.3611
" />
<path d="M143.1264 132.3611
L142.9359 132.4563
" />
<path d="M142.9359 132.4563
L142.8406 132.5515
" />
<path d="M142.8406 132.5515
L142.7454 132.7420
" />
<path d="M144.6502 131.5992
L144.6502 131.9801
" />
<path d="M145.4121 131.5992
L145.4121 131.9801
" />
<path d="M148.3645 134.3611
L148.2692 134.2658
" />
<path d="M148.2692 134.2658
L148.0787 133.9801
" />
<path d="M148.0787 133.9801
L147.9835 133.7896
" />
<path d="M147.9835 133.7896
L147.8883 133.5039
" />
<path d="M147.8883 133.5039
L147.7930 133.0277
" />
<path d="M147.7930 133.0277
L147.7930 132.6468
" />
<path d="M147.7930 132.6468
L147.8883 132.1706
" />
<path d="M147.8883 132.1706
L147.9835 131.8849
" />
<path d="M147.9835 131.8849
L148.0787 131.6944
" />
<path d="M148.0787 131.6944
L148.2692 131.4087
" />
<path d="M148.2692 131.4087
L148.3645 131.3134
" />
<path d="M149.9835 132.2658
L149.9835 133.5992
" />
<path d="M149.5073 131.5039
L149.0311 132.9325
" />
<path d="M149.0311 132.9325
L150.2692 132.9325
" />
<path d="M152.5549 133.5992
L152.5549 131.5992
" />
<path d="M153.4121 133.5992
L153.4121 132.5515
" />
<path d="M153.4121 132.5515
L153.3168 132.3611
" />
<path d="M153.3168 132.3611
L153.1264 132.2658
" />
<path d="M153.1264 132.2658
L152.8406 132.2658
" />
<path d="M152.8406 132.2658
L152.6502 132.3611
" />
<path d="M152.6502 132.3611
L152.5549 132.4563
" />
<path d="M154.6502 133.5992
L154.4597 133.5039
" />
<path d="M154.4597 133.5039
L154.3645 133.4087
" />
<path d="M154.3645 133.4087
L154.2692 133.2182
" />
<path d="M154.2692 133.2182
L154.2692 132.6468
" />
<path d="M154.2692 132.6468
L154.3645 132.4563
" />
<path d="M154.3645 132.4563
L154.4597 132.3611
" />
<path d="M154.4597 132.3611
L154.6502 132.2658
" />
<path d="M154.6502 132.2658
L154.9359 132.2658
" />
<path d="M154.9359 132.2658
L155.1264 132.3611
" />
<path d="M155.1264 132.3611
L155.2216 132.4563
" />
<path d="M155.2216 132.4563
L155.3168 132.6468
" />
<path d="M155.3168 132.6468
L155.3168 133.2182
" />
<path d="M155.3168 133.2182
L155.2216 133.4087
" />
<path d="M155.2216 133.4087
L155.1264 133.5039
" />
<path d="M155.1264 133.5039
L154.9359 133.5992
" />
<path d="M154.9359 133.5992
L154.6502 133.5992
" />
<path d="M156.4597 133.5992
L156.2692 133.5039
" />
<path d="M156.2692 133.5039
L156.1740 133.3134
" />
<path d="M156.1740 133.3134
L156.1740 131.5992
" />
<path d="M157.9835 133.5039
L157.7930 133.5992
" />
<path d="M157.7930 133.5992
L157.4121 133.5992
" />
<path d="M157.4121 133.5992
L157.2216 133.5039
" />
<path d="M157.2216 133.5039
L157.1264 133.3134
" />
<path d="M157.1264 133.3134
L157.1264 132.5515
" />
<path d="M157.1264 132.5515
L157.2216 132.3611
" />
<path d="M157.2216 132.3611
L157.4121 132.2658
" />
<path d="M157.4121 132.2658
L157.7930 132.2658
" />
<path d="M157.7930 132.2658
L157.9835 132.3611
" />
<path d="M157.9835 132.3611
L158.0787 132.5515
" />
<path d="M158.0787 132.5515
L158.0787 132.7420
" />
<path d="M158.0787 132.7420
L157.1264 132.9325
" />
<path d="M158.8406 133.5039
L159.0311 133.5992
" />
<path d="M159.0311 133.5992
L159.4121 133.5992
" />
<path d="M159.4121 133.5992
L159.6025 133.5039
" />
<path d="M159.6025 133.5039
L159.6978 133.3134
" />
<path d="M159.6978 133.3134
L159.6978 133.2182
" />
<path d="M159.6978 133.2182
L159.6025 133.0277
" />
<path d="M159.6025 133.0277
L159.4121 132.9325
" />
<path d="M159.4121 132.9325
L159.1264 132.9325
" />
<path d="M159.1264 132.9325
L158.9359 132.8373
" />
<path d="M158.9359 132.8373
L158.8406 132.6468
" />
<path d="M158.8406 132.6468
L158.8406 132.5515
" />
<path d="M158.8406 132.5515
L158.9359 132.3611
" />
<path d="M158.9359 132.3611
L159.1264 132.2658
" />
<path d="M159.1264 132.2658
L159.4121 132.2658
" />
<path d="M159.4121 132.2658
L159.6025 132.3611
" />
<path d="M160.3645 134.3611
L160.4597 134.2658
" />
<path d="M160.4597 134.2658
L160.6502 133.9801
" />
<path d="M160.6502 133.9801
L160.7454 133.7896
" />
<path d="M160.7454 133.7896
L160.8406 133.5039
" />
<path d="M160.8406 133.5039
L160.9359 133.0277
" />
<path d="M160.9359 133.0277
L160.9359 132.6468
" />
<path d="M160.9359 132.6468
L160.8406 132.1706
" />
<path d="M160.8406 132.1706
L160.7454 131.8849
" />
<path d="M160.7454 131.8849
L160.6502 131.6944
" />
<path d="M160.6502 131.6944
L160.4597 131.4087
" />
<path d="M160.4597 131.4087
L160.3645 131.3134
" />
</g></g> 
</svg>
